<svg xmlns="http://www.w3.org/2000/svg" version="1.1" xmlns:xlink="http://www.w3.org/1999/xlink" width="512" height="512" x="0" y="0" viewBox="0 0 138 138" style="enable-background:new 0 0 512 512" xml:space="preserve" fill-rule="evenodd" class=""><g><path fill-rule="nonzero" d="m44.059 72.344-22.955 7c-1.1.341-2 1.141-2.47 2.196L2.442 117.79c-1.404 3.141 1.546 6.475 4.837 5.466l32.696-10.279a4.01 4.01 0 0 0 2.784-3.196L49.2 76.806c.475-2.933-2.304-5.346-5.141-4.462m38.55 21.433-8.167 10.867a2.858 2.858 0 0 1-4.379-.075L56.413 86.06c-1.542-1.904-4.604-1.12-5.034 1.292l-4.1 23.029a2.854 2.854 0 0 0 2.238 3.3l38.146 7.775c1.941.396 3.687-1.262 3.391-3.225l-3.466-23.008c-.367-2.408-3.384-3.283-4.979-1.446m51.795 10.683-19.17-30.604a6.615 6.615 0 0 0-6.784-2.996l-9.221 1.955a6.63 6.63 0 0 0-4.304 2.808l-3.575 5.3a6.6 6.6 0 0 0-1.046 4.729l4.671 29.463c.592 3.745 4.209 6.229 7.917 5.429l27.296-6.109c4.483-.962 6.65-6.087 4.216-9.975M46.142 62.294l.196.296 8.779 13.029 10.158 15.033 6.975 10.329 6.979-10.333 6.071-8.983 4.179-6.192c.005-.004.005-.008.009-.013l8.879-13.175h-.004a30.84 30.84 0 0 0 5.125-17.058c0-17.212-13.984-31.167-31.238-31.167-17.246 0-31.233 13.955-31.233 31.167a30.84 30.84 0 0 0 5.133 17.067zm26.221-37.317c9.841 0 17.85 8.004 17.85 17.846s-8.009 17.85-17.85 17.85-17.85-8.008-17.85-17.85 8.008-17.846 17.85-17.846" fill="#c9624c" opacity="1" data-original="#000000" class=""></path></g></svg>