<svg xmlns="http://www.w3.org/2000/svg" version="1.1" xmlns:xlink="http://www.w3.org/1999/xlink" width="512" height="512" x="0" y="0" viewBox="0 0 256 256" style="enable-background:new 0 0 512 512" xml:space="preserve" class=""><g><path d="m48.596 250.049 180.419-103.213c14.56-8.33 14.58-29.325 0-37.67L48.596 5.954C31.09-4.051 10.543 13.169 17.416 32.172l34.666 95.831-34.666 95.829c-6.858 18.961 13.684 36.225 31.18 26.217zM24.762 226.49l34.215-94.582h35.619v16.013a3.906 3.906 0 0 0 7.812 0v-39.84a3.906 3.906 0 0 0-7.812 0v16.015H58.977L24.762 29.513c-4.407-12.18 8.762-23.185 19.955-16.778l180.419 103.213c9.317 5.328 9.332 18.77 0 24.107L44.717 243.268c-11.221 6.417-24.352-4.625-19.955-16.778z" fill="#ffffff" opacity="1" data-original="#000000" class=""></path></g></svg>