<svg xmlns="http://www.w3.org/2000/svg" version="1.1" xmlns:xlink="http://www.w3.org/1999/xlink" width="512" height="512" x="0" y="0" viewBox="0 0 68 68" style="enable-background:new 0 0 512 512" xml:space="preserve" class=""><g><path d="M9.605 24.975h11.828v2.783c0 .573-.47 1.044-1.043 1.044h-1.392v20.587h1.392c.573 0 1.043.46 1.043 1.043v2.784H9.605v-2.784c0-.583.47-1.043 1.044-1.043h1.391V28.802H10.65c-.573 0-1.044-.471-1.044-1.044zM28.084 24.975h11.829v2.783c0 .573-.471 1.044-1.044 1.044h-1.392v20.587h1.392c.573 0 1.044.46 1.044 1.043v2.784H28.084v-2.784c0-.583.47-1.043 1.044-1.043h1.391V28.802h-1.391c-.573 0-1.044-.471-1.044-1.044zM55.957 49.389h1.391c.573 0 1.044.46 1.044 1.043v2.784H46.563v-2.784c0-.583.471-1.043 1.044-1.043H49V28.802h-1.392c-.573 0-1.044-.471-1.044-1.044v-2.783h11.829v2.783c0 .573-.47 1.044-1.044 1.044h-1.391zM61.922 56.52v2.681H6.085v-2.68c0-.696.563-1.259 1.259-1.259h53.32c.695 0 1.258.563 1.258 1.259zM65.557 64.739v-2.235c0-.696-.565-1.26-1.261-1.26H3.704c-.696 0-1.26.564-1.26 1.26v2.235c0 .696.564 1.261 1.26 1.261h60.592c.696 0 1.26-.565 1.26-1.261zM32.754 2.32 5.695 17.097c-.403.22-.654.643-.654 1.102v3.474c0 .693.562 1.255 1.256 1.255H61.71c.694 0 1.256-.562 1.256-1.255v-3.474c0-.46-.251-.882-.654-1.102L35.262 2.32a2.617 2.617 0 0 0-2.508 0zm1.254 15.044a4.113 4.113 0 0 1-4.11-4.11 4.113 4.113 0 0 1 4.11-4.108c2.257 0 4.09 1.842 4.09 4.109 0 2.266-1.833 4.109-4.09 4.109z" fill="#c9624c" opacity="1" data-original="#000000" class=""></path></g></svg>