<svg xmlns="http://www.w3.org/2000/svg" version="1.1" xmlns:xlink="http://www.w3.org/1999/xlink" width="512" height="512" x="0" y="0" viewBox="0 0 32 32" style="enable-background:new 0 0 512 512" xml:space="preserve" class=""><g><path d="M21 1H9a5 5 0 0 0-5 5v17a5 5 0 0 0 5 5h11v-3.111A6.975 6.975 0 0 1 18 20c0-3.86 3.141-7 7-7 .34 0 .672.033 1 .08V6a5 5 0 0 0-5-5zm-6.82 22H9a1 1 0 1 1 0-2h5.18a1 1 0 1 1 0 2zm.24-5H9a1 1 0 1 1 0-2h5.42a1 1 0 1 1 0 2zm3.03-5H9a1 1 0 1 1 0-2h8.45a1 1 0 1 1 0 2zM21 8H9a1 1 0 1 1 0-2h12a1 1 0 1 1 0 2zM25 27c-1.075 0-2.09-.25-3-.683v3.681a1 1 0 0 0 1.555.832L25 29.866l1.445.964A1 1 0 0 0 28 29.998v-3.681A6.962 6.962 0 0 1 25 27z" fill="#c9624c" opacity="1" data-original="#000000" class=""></path><circle cx="25" cy="20" r="5" fill="#c9624c" opacity="1" data-original="#000000" class=""></circle></g></svg>