<svg xmlns="http://www.w3.org/2000/svg" version="1.1" xmlns:xlink="http://www.w3.org/1999/xlink" width="512" height="512" x="0" y="0" viewBox="0 0 512 512" style="enable-background:new 0 0 512 512" xml:space="preserve" class=""><g><path d="M256 309.229c-21.279 0-38.529-17.25-38.529-38.529s17.25-38.53 38.529-38.53 38.529 17.25 38.529 38.53c0 21.279-17.25 38.529-38.529 38.529zm0 10c-37.411 0-68.333 29.207-71.089 65.944a4.953 4.953 0 0 0 4.959 5.345h132.259a4.952 4.952 0 0 0 4.959-5.345c-2.755-36.738-33.677-65.944-71.088-65.944zM46.923 432.979l-5.558 13.345h429.268l-5.558-13.345c-.793-1.903-2.554-3.078-4.616-3.078H51.539c-2.062 0-3.823 1.174-4.616 3.078zm-32.949-42.461h132.26a4.952 4.952 0 0 0 4.959-5.345c-2.756-36.738-33.677-65.944-71.089-65.944-37.411 0-68.333 29.207-71.089 65.944a4.952 4.952 0 0 0 4.959 5.345zm417.922-71.289c-37.412 0-68.333 29.207-71.089 65.944a4.953 4.953 0 0 0 4.959 5.345h132.259a4.953 4.953 0 0 0 4.96-5.345c-2.756-36.738-33.677-65.944-71.089-65.944zm62.217 146.569c-.674-2.105-2.551-3.474-4.761-3.474H22.648c-2.21 0-4.087 1.369-4.761 3.474l-7.632 23.814c-.302.942-.15 1.885.433 2.684s1.434 1.232 2.423 1.232h485.777c.989 0 1.84-.432 2.423-1.232a2.916 2.916 0 0 0 .433-2.684zm-62.217-156.569c21.279 0 38.529-17.25 38.529-38.529s-17.25-38.53-38.529-38.53-38.529 17.25-38.529 38.53c0 21.279 17.25 38.529 38.529 38.529zm28.207-109.445 6.148-14.107H45.749l6.148 14.107c.812 1.864 2.55 3.002 4.583 3.002h399.04c2.033.001 3.771-1.138 4.583-3.002zM41.574 270.7c0 21.279 17.25 38.529 38.529 38.529s38.529-17.25 38.529-38.529-17.25-38.53-38.529-38.53c-21.278 0-38.529 17.251-38.529 38.53zM19 169.678 9 147.634 256 18.473l247 129.16-10 22.044H19zm201.145-69.935c0 19.802 16.053 35.855 35.855 35.855s35.855-16.053 35.855-35.855S275.802 63.889 256 63.889c-19.802-.001-35.855 16.052-35.855 35.854z" fill="#c9624c" opacity="1" data-original="#000000" class=""></path></g></svg>