<svg id="Capa_1" enable-background="new 0 0 512 512" height="512" viewBox="0 0 512 512" width="512" xmlns="http://www.w3.org/2000/svg"><g><path d="m457.639 258.924c29.975 0 54.361-24.386 54.361-54.361v-47.879h-41.861c-16.092 0-30.566 7.034-40.528 18.183-3.095-7.649-6.696-15.094-10.789-22.287l12.753-12.753c21.196-21.195 21.196-55.682 0-76.878l-29.6-29.601-29.6 29.601c-21.195 21.195-21.195 55.682 0 76.878l2.812 2.812c24.543 28.543 38.009 64.763 38.009 102.57 0 27.768-7.323 55.059-21.179 78.922-13.455 23.175-33.254 42.68-56.276 56.406v43.756c0 29.975 24.127 54.361 54.102 54.361h47.879v-41.861c0-29.924-24.305-54.275-54.211-54.357 11.171-10.406 21.069-22.156 29.428-34.976 7.531 20.996 27.628 36.058 51.183 36.058h47.878v-41.861c0-29.975-24.386-54.361-54.361-54.361h-19.146c2.139-9.311 3.563-18.797 4.263-28.372z"/><path d="m119.519 324.146c-13.861-23.867-21.188-51.164-21.188-78.939 0-36.407 12.589-71.572 35.542-99.629l5.753-5.753c21.195-21.195 21.195-55.682 0-76.878l-29.6-29.601-29.6 29.601c-21.196 21.195-21.196 55.682 0 76.878l12.458 12.458c-4.093 7.173-7.698 14.599-10.802 22.227-9.951-10.946-24.297-17.828-40.221-17.828h-41.861v47.879c0 29.975 24.386 54.361 54.361 54.361h14.408c.701 9.575 2.125 19.061 4.263 28.372h-18.671c-29.975.001-54.361 24.387-54.361 54.362v41.861h47.878c23.378 0 43.354-14.834 51.016-35.583 8.294 12.636 18.088 24.223 29.121 34.501-29.906.082-54.21 24.433-54.21 54.357v41.861h47.879c29.975 0 53.989-24.386 53.989-54.361v-43.737c-23.032-13.724-42.692-33.23-56.154-56.409z"/><path d="m377.093 243.883c0-66.902-54.428-121.331-121.33-121.331s-121.331 54.429-121.331 121.331 54.429 121.331 121.331 121.331 121.33-54.429 121.33-121.331zm-136.614 53.22-46.251-46.251 21.213-21.213 25.038 25.038 60.551-60.55 21.213 21.213z"/></g></svg>