<svg id="Layer_1" height="512" viewBox="0 0 512 512" width="512" xmlns="http://www.w3.org/2000/svg" data-name="Layer 1"><path d="m111.566 359.644 40.848 72.176 3.949-2.28a7.942 7.942 0 0 1 6.025-.789l110.084 29.472c16.058 4.3 25.194 1.476 39.379-5.764l151.2-93.1c7.418-4.567 8.335-17.147 3.943-24.224-9.825-15.83-37.462-2.323-48.7 4.22l-83.624 48.706a60.773 60.773 0 0 1 -20.7 7.567c-20.674 3.472-51.9-6.3-70.4-11.587-5.965-1.7-12.02-3.433-17.948-5.021a7.989 7.989 0 0 1 4.125-15.437c6.439 1.725 12.363 3.416 18.2 5.083 12.247 3.5 24.116 6.888 36.073 9.362 9.021 1.1 16.444-1.659 18.952-11.02 2.261-8.443-3.07-16.377-11.031-19.154-25.148-4.609-49.529-13.423-68.7-20.355-27.609-9.981-34.88-12.315-62.109 3.45l-49.562 28.695zm262.8-126.658a39.116 39.116 0 0 1 -32.729 17.841l15.378 35.7 20.437-32.927 37.964 7.775-21.053-48.875-7.118 3.049a6.511 6.511 0 0 0 -3.258 2.733l-9.618 14.708zm-167.576 38.626 38.175-6.67 19.471 33.507 22.4-48.111a39.1 39.1 0 0 1 -39-17.352l-9.619-14.708a6.511 6.511 0 0 0 -3.258-2.733l-1.723-.738zm63.359-138.436a8 8 0 0 1 11.313-11.312l15.209 15.209 44.354-40.252a7.986 7.986 0 0 1 10.75 11.813l-49.681 45.086a8 8 0 0 1 -11.356.045zm54.951-112.447 14.064 10.531a22.406 22.406 0 0 0 12.7 4.621l17.546.976a23.067 23.067 0 0 1 21.439 17.989l4.008 17.11a22.406 22.406 0 0 0 6.755 11.7l12.814 12.026a23.069 23.069 0 0 1 4.86 27.561l-7.928 15.683a22.408 22.408 0 0 0 -2.346 13.306l2.085 17.449a23.065 23.065 0 0 1 -13.997 24.237l-16.154 6.919a22.405 22.405 0 0 0 -10.35 8.684l-9.618 14.708a23.067 23.067 0 0 1 -26.3 9.571l-16.822-5.083a22.394 22.394 0 0 0 -13.511 0l-16.819 5.083a23.067 23.067 0 0 1 -26.3-9.571l-9.618-14.708a22.405 22.405 0 0 0 -10.35-8.684l-16.154-6.919a23.065 23.065 0 0 1 -13.993-24.236l2.085-17.449a22.408 22.408 0 0 0 -2.346-13.306l-7.928-15.683a23.069 23.069 0 0 1 4.86-27.561l12.818-12.026a22.406 22.406 0 0 0 6.755-11.7l4.008-17.11a23.067 23.067 0 0 1 21.437-17.99l17.545-.976a22.407 22.407 0 0 0 12.7-4.621l14.068-10.531a23.069 23.069 0 0 1 27.987 0zm-14 39.334a65.355 65.355 0 1 0 65.354 65.355 65.355 65.355 0 0 0 -65.354-65.355zm-224.133 288.601 66.2 116.966a11.851 11.851 0 0 1 -4.463 16.1l-22.517 12.743a11.85 11.85 0 0 1 -16.1-4.463l-66.2-116.966a11.85 11.85 0 0 1 4.463-16.1l22.514-12.744a11.85 11.85 0 0 1 16.1 4.463zm-15.18 17.536a8.039 8.039 0 1 0 9.118 6.791 8.038 8.038 0 0 0 -9.118-6.791z" fill-rule="evenodd"/></svg>