<svg xmlns="http://www.w3.org/2000/svg" version="1.1" xmlns:xlink="http://www.w3.org/1999/xlink" width="512" height="512" x="0" y="0" viewBox="0 0 32 32" style="enable-background:new 0 0 512 512" xml:space="preserve" class=""><g><path d="M6 17c-2.206 0-4-1.794-4-4s1.794-4 4-4 4 1.794 4 4-1.794 4-4 4zm1.77.67c-1.14.44-2.4.44-3.54 0-.29-.11-.62-.07-.88.09A4.995 4.995 0 0 0 1 22v4c0 .55.45 1 1 1h5v-5c0-1.55.41-3.06 1.15-4.38-.13-.02-.26 0-.38.05zM26 17c2.206 0 4-1.794 4-4s-1.794-4-4-4-4 1.794-4 4 1.794 4 4 4zm2.65.76c-.26-.16-.59-.2-.88-.09-1.14.44-2.4.44-3.54 0a.703.703 0 0 0-.38-.05A8.978 8.978 0 0 1 25 22v5h5c.55 0 1-.45 1-1v-4c0-1.73-.88-3.31-2.35-4.24zM16 15c-2.757 0-5-2.243-5-5s2.243-5 5-5 5 2.243 5 5-2.243 5-5 5zm7 7a6.98 6.98 0 0 0-2.87-5.64c-.3-.22-.7-.25-1.03-.09-.67.34-1.38.55-2.1.65V22c0 .55-.45 1-1 1s-1-.45-1-1v-5.08c-.72-.1-1.43-.31-2.1-.65-.33-.16-.73-.13-1.03.09A6.98 6.98 0 0 0 9 22v5h14z" fill="#444343" opacity="1" data-original="#000000"></path></g></svg>