<svg xmlns="http://www.w3.org/2000/svg" version="1.1" xmlns:xlink="http://www.w3.org/1999/xlink" width="512" height="512" x="0" y="0" viewBox="0 0 512 512" style="enable-background:new 0 0 512 512" xml:space="preserve"><g transform="matrix(0.8700000000000001,0,0,0.8700000000000001,33.27999999999997,33.27999999999997)"><path d="m501.131 272.571-105-30a15.216 15.216 0 0 0-8.262 0l-105 30C276.453 274.417 272 280.306 272 287v70.796c0 71.016 47.666 134.194 115.898 153.633 1.348.381 2.725.571 4.102.571s2.754-.19 4.102-.571C464.334 491.99 512 428.812 512 357.796V287c0-6.694-4.453-12.583-10.869-14.429zm-53.526 85.034-60 60c-2.93 2.93-6.768 4.395-10.605 4.395s-7.676-1.465-10.605-4.395l-30-30c-5.859-5.859-5.859-15.352 0-21.211s15.352-5.859 21.211 0L377 385.789l49.395-49.395c5.859-5.859 15.352-5.859 21.211 0s5.859 15.352-.001 21.211z" fill="#444343" opacity="1" data-original="#000000"></path><circle cx="106" cy="107" r="15" fill="#444343" opacity="1" data-original="#000000"></circle><path d="M467 0H45C20.186 0 0 20.186 0 45v242c0 24.814 20.186 45 45 45h197v-45c0-19.951 13.389-37.734 32.578-43.257l105.059-30.015C383.709 212.571 387.84 212 392 212s8.291.571 12.275 1.699c43.274 12.541 95.452 26.862 107.725 31.284V45c0-24.814-20.186-45-45-45zM107 242H77c-8.291 0-15-6.709-15-15s6.709-15 15-15h30c8.291 0 15 6.709 15 15s-6.709 15-15 15zm-1-90c-24.813 0-45-20.187-45-45s20.187-45 45-45 45 20.187 45 45-20.187 45-45 45zm91 90h-30c-8.291 0-15-6.709-15-15s6.709-15 15-15h30c8.291 0 15 6.709 15 15s-6.709 15-15 15zm240-120H257c-8.291 0-15-6.709-15-15s6.709-15 15-15h180c8.291 0 15 6.709 15 15s-6.709 15-15 15z" fill="#444343" opacity="1" data-original="#000000"></path></g></svg>