<svg xmlns="http://www.w3.org/2000/svg" version="1.1" xmlns:xlink="http://www.w3.org/1999/xlink" width="512" height="512" x="0" y="0" viewBox="0 0 64 64" style="enable-background:new 0 0 512 512" xml:space="preserve"><g><path d="M60 32c-.21 6.61-9.79 6.6-10 0a5.004 5.004 0 0 1 3.45-4.73 20.114 20.114 0 0 0-1.52-4.57 1.002 1.002 0 1 1 1.82-.84 22.376 22.376 0 0 1 1.7 5.19A4.989 4.989 0 0 1 60 32zM19.27 19.27a4.95 4.95 0 0 1-5.79.9 21.14 21.14 0 0 0-2.14 4.28.996.996 0 0 1-1.88-.66 22.463 22.463 0 0 1 2.45-4.87 4.991 4.991 0 1 1 7.36.35zM54.54 40.21a22.46 22.46 0 0 1-2.45 4.87 4.991 4.991 0 1 1-7.36-.35 4.95 4.95 0 0 1 5.79-.9 21.137 21.137 0 0 0 2.14-4.28.996.996 0 0 1 1.88.66zM25.06 53.93a.984.984 0 0 1-1.27.61 22.687 22.687 0 0 1-4.87-2.45 5.008 5.008 0 1 1 1.25-1.57 21.137 21.137 0 0 0 4.28 2.14.988.988 0 0 1 .61 1.27zM10.55 36.73a20.113 20.113 0 0 0 1.52 4.57 1.002 1.002 0 1 1-1.82.84 22.376 22.376 0 0 1-1.7-5.19A4.989 4.989 0 0 1 4 32c.21-6.61 9.79-6.6 10 0a5.004 5.004 0 0 1-3.45 4.73zM42.14 53.75a22.376 22.376 0 0 1-5.19 1.7c-.72 6.28-9.77 5.88-9.95-.45a4.986 4.986 0 0 1 9.73-1.55 20.114 20.114 0 0 0 4.57-1.52 1.002 1.002 0 0 1 .84 1.82zM37 9a4.986 4.986 0 0 1-9.73 1.55 34.515 34.515 0 0 0-4.99 1.61.993.993 0 0 1-.91-.58 1.01 1.01 0 0 1 .49-1.33 22.376 22.376 0 0 1 5.19-1.7c.72-6.28 9.77-5.88 9.95.45zM53.26 15.74a4.99 4.99 0 1 1-9.43-2.26 21.137 21.137 0 0 0-4.28-2.14.996.996 0 0 1 .66-1.88 22.69 22.69 0 0 1 4.87 2.45 5.005 5.005 0 0 1 8.18 3.83zM45.64 25.55 33 33.14v14.09l12.64-7.58zM18.36 39.65 31 47.23V33.14l-12.64-7.59zM44.7 23.78 32 16.17l-12.7 7.61L32 31.4z" fill="#444343" opacity="1" data-original="#000000"></path></g></svg>