<svg xmlns="http://www.w3.org/2000/svg" version="1.1" xmlns:xlink="http://www.w3.org/1999/xlink" width="512" height="512" x="0" y="0" viewBox="0 0 32 32" style="enable-background:new 0 0 512 512" xml:space="preserve" class=""><g><path d="M3 10h6.02a1 1 0 0 0 .794-1.608l-2.92-5.84c-.34-.677-1.449-.677-1.789 0l-3 6A.999.999 0 0 0 3 10zM9 21H4a1 1 0 0 0-1 1v5a1 1 0 0 0 1 1h5a1 1 0 0 0 1-1v-5a1 1 0 0 0-1-1zM20 12c0-2.206-1.794-4-4-4s-4 1.794-4 4 1.794 4 4 4 4-1.794 4-4zM18 16h-4c-2.206 0-4 1.794-4 4v1a1 1 0 0 0 1 1h10a1 1 0 0 0 1-1v-1c0-2.206-1.794-4-4-4zM5.092 11H3c-.024 0-.046-.008-.07-.009C2.32 12.578 2 14.271 2 16c0 1.524.259 3.017.743 4.457A1.98 1.98 0 0 1 4 20h.702A11.94 11.94 0 0 1 4 16c0-1.741.375-3.442 1.092-5zM23.433 7.167l-.27 1.674a1 1 0 0 0 1.47 1.034l1.362-.75 1.374.752a.997.997 0 0 0 .5.123 1 1 0 0 0 .937-1.353l-.239-1.48 1.15-1.18a1 1 0 0 0-.569-1.686l-1.54-.23-.703-1.496a1 1 0 0 0-1.81 0l-.7 1.492-1.19.178a1.234 1.234 0 0 0-.07.009l-.3.05a1 1 0 0 0-.552 1.684zM21.1 4.666a1.987 1.987 0 0 1 1.116-1.207A13.952 13.952 0 0 0 16 2c-2.566 0-5.07.717-7.246 2.036l.9 1.798A11.987 11.987 0 0 1 16 4c1.75 0 3.453.38 5.02 1.103.014-.146.032-.293.08-.437zM28.342 20.764A3.93 3.93 0 0 0 26 20c-2.206 0-4 1.794-4 4 0 1.162.496 2.252 1.339 2.971A3.958 3.958 0 0 0 26 28c2.206 0 4-1.794 4-4a3.98 3.98 0 0 0-1.658-3.236zM22.667 27.712a4.64 4.64 0 0 1-.967-1.152A11.844 11.844 0 0 1 16 28a11.94 11.94 0 0 1-5-1.092V27c0 .706-.37 1.325-.924 1.68A13.927 13.927 0 0 0 16 30a13.8 13.8 0 0 0 7.11-1.955c-.15-.108-.305-.207-.443-.333zM27.538 19.242a4.921 4.921 0 0 1 1.785 1.03 13.885 13.885 0 0 0-.376-9.596c-.282.182-.608.3-.962.32l-.124.004-.094-.002c-.262 0-.59-.085-.88-.245l-.14-.077A11.857 11.857 0 0 1 28 16c0 1.11-.167 2.192-.462 3.242z" fill="#c9624c" opacity="1" data-original="#000000"></path></g></svg>