<svg xmlns="http://www.w3.org/2000/svg" version="1.1" xmlns:xlink="http://www.w3.org/1999/xlink" width="512" height="512" x="0" y="0" viewBox="0 0 512 512" style="enable-background:new 0 0 512 512" xml:space="preserve"><g><path d="M383.55 342.62a614.72 614.72 0 0 0 6-86.62 614.72 614.72 0 0 0-6-86.62H497a257 257 0 0 1 0 173.24ZM256 512c-25 0-50.52-25.66-70.09-70.39-8.94-20.43-16.22-43.72-21.67-69h183.52c-5.45 25.27-12.73 48.56-21.67 69C306.52 486.34 281 512 256 512Zm-97.24-169.38a596.75 596.75 0 0 1 0-173.24h194.48a581.9 581.9 0 0 1 6.32 86.62 581.9 581.9 0 0 1-6.32 86.62Zm-143.76 0a257 257 0 0 1 0-173.24h113.45a627.22 627.22 0 0 0 0 173.24ZM256 0c25 0 50.52 25.65 70.09 70.39 8.94 20.43 16.22 43.72 21.67 69H164.24c5.45-25.27 12.73-48.56 21.67-69C205.48 25.65 231 0 256 0Zm228 139.38H378.38c-6-29.7-14.34-57.11-24.8-81C345.11 39 335.51 22.59 325 9.37a254.55 254.55 0 0 1 159 130.01ZM187 9.36c-10.48 13.23-20.07 29.63-28.55 49-10.46 23.91-18.79 51.32-24.8 81H28a254.6 254.6 0 0 1 159-130ZM28 372.62h105.62c6 29.7 14.34 57.11 24.8 81 8.48 19.37 18.07 35.77 28.55 49A254.55 254.55 0 0 1 28 372.62Zm297 130c10.48-13.23 20.08-29.63 28.55-49 10.46-23.91 18.79-51.32 24.8-81H484a254.57 254.57 0 0 1-159 130.02Z" data-name="Layer 2" fill="#c9624c" opacity="1" data-original="#000000"></path></g></svg>