<?xml version="1.0" encoding="UTF-8"?>
<svg xmlns="http://www.w3.org/2000/svg" xmlns:xlink="http://www.w3.org/1999/xlink" version="1.1" id="Capa_1" x="0px" y="0px" viewBox="0 0 512 512" style="enable-background:new 0 0 512 512;" xml:space="preserve" width="512" height="512">
<g>
	
		<circle style="fill:none;stroke:#000000;stroke-width:30;stroke-linecap:round;stroke-linejoin:round;stroke-miterlimit:10;" cx="215.833" cy="456.833" r="40.167"/>
	
		<circle style="fill:none;stroke:#000000;stroke-width:30;stroke-linecap:round;stroke-linejoin:round;stroke-miterlimit:10;" cx="392.567" cy="456.833" r="40.167"/>
	<path style="fill:none;stroke:#000000;stroke-width:30;stroke-linecap:round;stroke-linejoin:round;stroke-miterlimit:10;" d="&#10;&#9;&#9;M392.567,416.667h-192.8c-22.18,0-40.167-17.987-40.167-40.167s17.987-40.167,40.167-40.167"/>
	<path style="fill:none;stroke:#000000;stroke-width:30;stroke-linecap:round;stroke-linejoin:round;stroke-miterlimit:10;" d="&#10;&#9;&#9;M497,143.533H111.4c0,0,23.353,93.42,37.548,150.207c6.258,25.032,28.751,42.593,54.554,42.593c54.498,0,146.898,0,201.396,0&#10;&#9;&#9;c25.803,0,48.296-17.561,54.554-42.593C473.647,236.953,497,143.533,497,143.533z"/>
	<path style="fill:none;stroke:#000000;stroke-width:30;stroke-linecap:round;stroke-linejoin:round;stroke-miterlimit:10;" d="&#10;&#9;&#9;M111.4,143.533c0,0-8.355-33.427-16.549-66.187C85.693,40.707,52.773,15,15,15"/>
</g>















</svg>
