<svg xmlns="http://www.w3.org/2000/svg" version="1.1" xmlns:xlink="http://www.w3.org/1999/xlink" width="512" height="512" x="0" y="0" viewBox="0 0 512 512" style="enable-background:new 0 0 512 512" xml:space="preserve" class=""><g><path d="M150 449.896C181.199 469.907 217.432 481 255 481c31.523 0 61.611-7.295 89.473-21.68l-13.77-26.66C273.126 462.4 200.145 454.1 150 412.795V301H0v150h150zM213.878 126.911 256 194.301 358.07 31H153.93l43.434 69.49c-68.879 21.832-121.547 80.79-133.669 153.034l29.59 4.951c10.688-63.705 58.649-115.156 120.593-131.564zM362 376c0 41.353 33.633 75 75 75s75-33.647 75-75c0-36.682-26.506-67.17-61.357-73.619.456-5.472 1.357-10.879 1.357-16.381 0-68.188-36.387-132.349-94.951-167.417l-15.41 25.752C391.209 174.013 422 228.3 422 286c0 5.698-.829 11.296-1.404 16.934C387.12 310.452 362 340.296 362 376z" fill="#eb6b1a" opacity="1" data-original="#000000"></path></g></svg>