<svg xmlns="http://www.w3.org/2000/svg" version="1.1" xmlns:xlink="http://www.w3.org/1999/xlink" width="512" height="512" x="0" y="0" viewBox="0 0 512 512" style="enable-background:new 0 0 512 512" xml:space="preserve" class=""><g><path d="M421 151h-15c-49.629 0-90 40.371-90 90v46.069l39.902-23.042L376 298.854V241c0-16.538 13.462-30 30-30h15v37.5l91-67.5-91-67.5zM256 0l-67.485 91H226l.011 150H286V91h37.485zM91 211h15c16.538 0 30 13.462 30 30v57.854l20.098-34.827L196 287.069V241c0-49.629-40.371-90-90-90H91v-37.5L0 181l91 67.5z" fill="#eb6b1a" opacity="1" data-original="#000000"></path><circle cx="256" cy="391" r="15" fill="#eb6b1a" opacity="1" data-original="#000000"></circle><path d="m344.916 305.014-30.792 17.783c-8.437-7.178-17.9-12.656-28.124-16.289V271h-60v35.508c-10.239 3.633-19.702 9.111-28.11 16.289l-30.806-17.783-30 51.973 30.571 17.651C166.674 379.97 166 385.39 166 391s.674 11.045 1.655 16.362l-30.571 17.651 30 51.973 30.79-17.783c8.438 7.178 17.901 12.656 28.126 16.289V512h60v-36.508c10.239-3.633 19.702-9.111 28.11-16.289l30.806 17.783 30-51.973-30.571-17.651C345.326 402.03 346 396.61 346 391s-.674-11.045-1.655-16.362l30.571-17.651zM256 436c-24.814 0-45-20.186-45-45s20.186-45 45-45 45 20.186 45 45-20.186 45-45 45z" fill="#eb6b1a" opacity="1" data-original="#000000"></path></g></svg>