<svg xmlns="http://www.w3.org/2000/svg" version="1.1" xmlns:xlink="http://www.w3.org/1999/xlink" width="512" height="512" x="0" y="0" viewBox="0 0 100 100" style="enable-background:new 0 0 512 512" xml:space="preserve"><g transform="matrix(1,-1.2246467991473532e-16,1.2246467991473532e-16,1,-1.4210854715202004e-14,1.4210854715202004e-14)"><path d="M70.696 78.225H42.792c-1.843 0-3.575-.718-4.879-2.021s-2.021-3.038-2.021-4.881a6.844 6.844 0 0 1 2.021-4.877 6.854 6.854 0 0 1 4.879-2.021h10.396L23.344 34.578a7.45 7.45 0 0 1-2.196-5.302c0-2.003.78-3.887 2.196-5.303a7.453 7.453 0 0 1 5.305-2.197c2.003 0 3.887.78 5.302 2.196l30.052 30.051.122-10.35c.044-3.759 3.14-6.818 6.9-6.818 1.896.022 3.6.74 4.881 2.022a6.856 6.856 0 0 1 2.02 4.961l-.328 27.569c-.046 3.759-3.142 6.818-6.902 6.818zM42.794 67.424c-1.043 0-2.023.406-2.76 1.142s-1.142 1.715-1.142 2.756c0 1.043.405 2.023 1.143 2.76a3.872 3.872 0 0 0 2.757 1.143h27.904a3.914 3.914 0 0 0 3.9-3.854l.328-27.568a3.87 3.87 0 0 0-1.142-2.805 3.88 3.88 0 0 0-2.711-1.142h-.001c-2.173 0-3.922 1.728-3.947 3.853l-.163 13.91a1.5 1.5 0 0 1-2.561 1.043l-32.57-32.569a4.467 4.467 0 0 0-3.181-1.317 4.475 4.475 0 0 0-3.184 1.318c-.85.85-1.317 1.98-1.317 3.182s.468 2.332 1.317 3.181L57.87 64.863a1.499 1.499 0 0 1-1.061 2.561z" fill="#eb6b1a" opacity="1" data-original="#000000"></path></g></svg>