<svg xmlns="http://www.w3.org/2000/svg" version="1.1" xmlns:xlink="http://www.w3.org/1999/xlink" width="512" height="512" x="0" y="0" viewBox="0 0 24 24" style="enable-background:new 0 0 512 512" xml:space="preserve" class=""><g><path d="M20 4.25h-9.586a.251.251 0 0 1-.177-.073L8.823 2.763a1.736 1.736 0 0 0-1.237-.513H4A2.753 2.753 0 0 0 1.25 5v14A2.753 2.753 0 0 0 4 21.75h16A2.753 2.753 0 0 0 22.75 19V7A2.753 2.753 0 0 0 20 4.25zm-8 13.5a4.724 4.724 0 0 1-4.056-2.277.75.75 0 0 1 1.28-.784A3.23 3.23 0 0 0 12 16.25c1.792 0 3.25-1.458 3.25-3.25S13.792 9.75 12 9.75a3.22 3.22 0 0 0-1.477.363l.962.121a.75.75 0 0 1-.187 1.489l-2.624-.33a.746.746 0 0 1-.65-.838l.331-2.624a.75.75 0 1 1 1.488.188l-.09.712c.683-.371 1.451-.581 2.247-.581 2.62 0 4.75 2.13 4.75 4.75s-2.13 4.75-4.75 4.75z" fill="#eb6b1a" opacity="1" data-original="#000000" class=""></path></g></svg>