<svg xmlns="http://www.w3.org/2000/svg" version="1.1" xmlns:xlink="http://www.w3.org/1999/xlink" width="512" height="512" x="0" y="0" viewBox="0 0 511.008 511.008" style="enable-background:new 0 0 512 512" xml:space="preserve" class=""><g><path d="M248.28 319.275c0-9.447-7.686-17.133-17.133-17.133-22.698.861-22.692 33.409 0 34.267 9.447-.001 17.133-7.687 17.133-17.134z" fill="#eb6b1a" opacity="1" data-original="#000000" class=""></path><path d="m500.214 278.141-45.257-60.342C445.267-28.67 110.913-83.129 21.79 143.608h90.677l27.74-27.74a15.003 15.003 0 0 1 10.606-4.393h35.661c17.604-49.883 90.754-38.543 91.805 15.001-1.056 53.552-74.21 64.875-91.805 14.999h-29.448l-27.741 27.74a14.999 14.999 0 0 1-10.606 4.393H12.754a223.014 223.014 0 0 0-4.96 34.267h275.081c17.604-49.883 90.754-38.543 91.805 15.001-1.056 53.552-74.21 64.875-91.805 14.999H7.797a223.964 223.964 0 0 0 4.956 34.267H118.68c3.978 0 7.793 1.58 10.606 4.393l27.741 27.74h29.448c17.604-49.883 90.754-38.543 91.805 15.001-1.056 53.552-74.21 64.875-91.805 14.999h-35.661a15.003 15.003 0 0 1-10.606-4.393l-27.74-27.74h-90.72c12.536 33.12 32.903 63.092 59.907 87.322L55.928 492.37a15.002 15.002 0 0 0 14.552 18.638h208.867a15 15 0 0 0 14.552-11.362l12.785-51.143 99.075 14.153c7.605 1.087 14.809-3.754 16.673-11.211l30.727-122.907 43.375-28.917a14.998 14.998 0 0 0 3.68-21.48z" fill="#eb6b1a" opacity="1" data-original="#000000" class=""></path><path d="M248.28 126.475c0-9.447-7.686-17.133-17.133-17.133-22.698.861-22.692 33.409 0 34.267 9.447-.001 17.133-7.687 17.133-17.134zM344.68 222.875c0-9.447-7.686-17.133-17.133-17.133-22.698.861-22.692 33.409 0 34.267 9.447-.001 17.133-7.687 17.133-17.134z" fill="#eb6b1a" opacity="1" data-original="#000000" class=""></path></g></svg>