<svg xmlns="http://www.w3.org/2000/svg" version="1.1" xmlns:xlink="http://www.w3.org/1999/xlink" width="512" height="512" x="0" y="0" viewBox="0 0 492 492" style="enable-background:new 0 0 512 512" xml:space="preserve" class=""><g><g fill-rule="evenodd" clip-rule="evenodd"><path d="M251.26 97.78v86.38l66.68-30.61V67.17zM241.27 97.77l-66.69-30.6v86.38l66.69 30.61zM181.73 59.45l64.54 29.62 64.54-29.61-64.55-28.71zM113.1 336.89v86.38l66.69-30.61v-86.39zM103.11 423.28v-86.39l-66.68-30.6v86.38zM172.65 298.57l-64.54-28.71-64.55 28.71 64.55 29.61zM389.41 336.89v86.38l66.69-30.61v-86.39zM379.42 423.28v-86.39l-66.68-30.6v86.38zM448.96 298.57l-64.54-28.71-64.55 28.71 64.55 29.61zM246.26 462.73c-40.08 0-79.31-13.71-110.6-38.72l17.73-8.14c27 19.22 59.62 29.67 92.87 29.67s65.87-10.45 92.86-29.66l17.73 8.14c-31.31 24.96-70.51 38.71-110.59 38.71zm159.25-194.52c-5.33-50.06-34.25-94.83-77.49-120.56v-19.68c55.71 28.92 92.12 85.5 95.34 148.18zm-336.35 7.94c3.23-62.67 39.63-119.26 95.34-148.17v19.68c-43.24 25.74-72.15 70.5-77.49 120.55z" fill="#eb6b1a" opacity="1" data-original="#000000" class=""></path></g></g></svg>