<svg xmlns="http://www.w3.org/2000/svg" version="1.1" xmlns:xlink="http://www.w3.org/1999/xlink" width="512" height="512" x="0" y="0" viewBox="0 0 504.131 504.131" style="enable-background:new 0 0 512 512" xml:space="preserve" class=""><g><path d="M453.844 114.387H345.268V70.636c0-20.832-16.948-37.779-37.78-37.779H196.634c-20.832 0-37.78 16.947-37.78 37.779v43.751H50.278c-27.659 0-50.162 22.503-50.162 50.162 0 25.124-2.573 47.687 16.466 73.061 10.772 14.356 25.575 24.597 42.808 29.614l167.344 48.723a90.45 90.45 0 0 0 50.652 0l167.344-48.723c17.233-5.018 32.036-15.258 42.808-29.614 19.125-25.488 16.466-48.283 16.466-73.061.001-27.659-22.501-50.162-50.16-50.162zm-262.99-43.751a5.786 5.786 0 0 1 5.78-5.779h110.854a5.786 5.786 0 0 1 5.78 5.779v43.751H190.854z" fill="#eb6b1a" opacity="1" data-original="#000000" class=""></path><path d="M453.677 297.948c-180.501 52.554-178.164 53.617-201.616 53.617-23.284 0-17.76-.086-201.615-53.616C31.061 292.304 13.893 281.9.117 267.557v153.556c0 27.659 22.502 50.161 50.162 50.161h403.565c27.659 0 50.162-22.502 50.162-50.161V267.557c-13.777 14.342-30.945 24.747-50.329 30.391z" fill="#eb6b1a" opacity="1" data-original="#000000" class=""></path></g></svg>