<svg xmlns="http://www.w3.org/2000/svg" version="1.1" xmlns:xlink="http://www.w3.org/1999/xlink" width="512" height="512" x="0" y="0" viewBox="0 0 24 24" style="enable-background:new 0 0 512 512" xml:space="preserve" class=""><g><path d="M22.65 19.57a1.7 1.7 0 0 1-2.08 2.08l-1.95-.52A7.89 7.89 0 0 1 15 22a8.08 8.08 0 0 1-1.2-.09 7.92 7.92 0 0 1-4.13-2c.28 0 .55 0 .83-.06a10 10 0 0 0 8-13.09 8 8 0 0 1 4.45 6 7.94 7.94 0 0 1-.78 4.82zm-8-15.23A8 8 0 0 0 1.09 8.8a7.94 7.94 0 0 0 .78 4.82l-.52 2a1.66 1.66 0 0 0 .44 1.64 1.66 1.66 0 0 0 1.64.44l1.95-.52A7.89 7.89 0 0 0 9 18a8 8 0 0 0 5.66-13.66z" fill="#eb6b1a" opacity="1" data-original="#000000" class=""></path></g></svg>