<svg xmlns="http://www.w3.org/2000/svg" version="1.1" xmlns:xlink="http://www.w3.org/1999/xlink" width="512" height="512" x="0" y="0" viewBox="0 0 510 510" style="enable-background:new 0 0 512 512" xml:space="preserve" fill-rule="evenodd" class=""><g><path d="M298.187 187.629c21.463-29.269 29.125-65.494 22.988-99.73 15.008-7.282 31.855-11.365 49.657-11.365h16.661V93.2c0 54.45-38.209 99.976-89.276 111.229v-13.992c0-.938-.01-1.874-.03-2.808zm-3.07-25.528c-8.817-39.631-35.738-72.441-71.635-89.305 5.488-15.482 14.426-30.014 26.814-42.402l11.781-11.781 11.785 11.785c35.637 35.637 42.722 89.013 21.255 131.703zM168.314 76.534c62.907 0 113.903 50.996 113.903 113.903v16.66H265.55c-62.904 0-113.897-50.993-113.897-113.897V76.534zm229.705 152.083c3.519 12.006 5.407 24.709 5.407 37.852 0 33.111-11.975 63.407-31.78 86.794-6.448 7.574-9.979 15.763-11.054 25.639-3.634 33.009 5.22 71.595 25.332 112.485H232.499c-6.141-34.39-26.867-47.542-62.179-39.559-23.592 4.094-35.106.819-34.595-9.877-.153-16.581-2.968-22.62-7.267-25.793-9.467-7.318 1.075-16.683 11.924-22.568-9.109-.717-20.828-8.035-18.269-13.92 3.991-13.766 2.098-19.344-4.146-22.568-12.077-5.937-14.585-13.46-7.369-22.671 8.342-9.058 14.943-18.219 19.805-27.584 4.504-8.598 6.141-17.144 5.169-26.816-.461-4.453-.665-8.956-.665-13.562 0-13.143 1.887-25.846 5.406-37.852z" fill="#eb6b1a" opacity="1" data-original="#000000"></path></g></svg>