<svg xmlns="http://www.w3.org/2000/svg" version="1.1" xmlns:xlink="http://www.w3.org/1999/xlink" width="512" height="512" x="0" y="0" viewBox="0 0 480 480" style="enable-background:new 0 0 512 512" xml:space="preserve"><g><path d="m102.2 122.398 11.5 11.204c8.198-8.5 17.198-16.102 26.902-22.704L131.5 97.7c-10.602 7.301-20.398 15.602-29.3 24.7zM50.898 222.602l16 2.699C70.2 206.6 76.602 188.5 85.7 171.8l-14-8C61.602 182.199 54.5 202 50.9 222.6zm0 0" fill="#ffffff" opacity="1" data-original="#000000"></path><path d="M464 249.398c-3.5-112.398-89.8-204.796-201.7-216 1.2-3 1.802-6.199 1.7-9.398 0-13.3-10.7-24-24-24s-24 10.7-24 24c0 3.102.602 6.2 1.8 9.102C105.8 44.199 19.399 136.8 16 249.398c-3.398 1.204-6.5 3.102-9 5.602-4.5 4.5-7 10.7-7 17 0 13.3 10.7 24 24 24h256l-31.5 86.8c-1.5 4.2.602 8.7 4.8 10.302 2 .699 4.2.597 6.098-.301l33.801-16 16 33.8a7.94 7.94 0 0 0 7.2 4.598c3.203-.199 6-2.199 7.101-5.3l30.898-85 30.801 85a8.137 8.137 0 0 0 7.102 5.3 7.94 7.94 0 0 0 7.199-4.597l16-33.801 33.8 16c4 1.898 8.802.097 10.598-3.903.903-1.898 1-4.097.301-6.097L429.2 296H456c13.3 0 24-10.7 24-24 0-10.102-6.398-19.2-16-22.602zM232 24c0-4.398 3.602-8 8-8s8 3.602 8 8-3.602 8-8 8-8-3.602-8-8zm8 24c111.8-.102 203.7 88.3 208 200h-17.602c1.102-5.3 1.602-10.602 1.602-16 0-26.102-12.8-50.602-34.2-65.5l9.2-5.2c-17.7-31.1-43.7-56.698-75.102-73.8l-8 14c25.704 14.102 47.602 34.398 63.5 59-39.597-19.5-87.597-3.2-107.097 36.398A79 79 0 0 0 272.1 232c0 5.398.5 10.7 1.598 16H32c4.3-111.7 96.2-200.102 208-200zm108.102 247.8c-34.903-3.5-60.403-34.698-56.801-69.6 3.5-34.9 34.699-60.4 69.597-56.802C395.801 173 421.301 204.102 417.7 239c-3 30.102-26.8 53.8-56.8 56.8zM24 280c-4.398 0-8-3.602-8-8 0-2.102.898-4.2 2.5-5.7 1.398-1.5 3.398-2.402 5.5-2.3h254.7c2.198 4.898 4.902 9.5 8 13.8l-.802 2.2zm291.2 106.398L304 363c-1.898-4-6.602-5.7-10.602-3.8l-23.5 11 28.5-78.7c12.204 11 27.5 18 43.801 20zm100.198-27.296c-4-1.903-8.796-.204-10.597 3.796l-11 23.403-27.403-75.801c16.301-2.898 31.204-10.898 42.801-22.602L439 370.102zm46.102-81.403c-1.398 1.5-3.398 2.403-5.5 2.301h-32.602l-2.597-7.2c1.699-2.8 3.199-5.8 4.597-8.8H456c4.398 0 8 3.602 8 8 0 2.102-.898 4.2-2.5 5.7zm0 0" fill="#ffffff" opacity="1" data-original="#000000"></path><path d="M355 181.5c-28.3 0-51.2 22.898-51.2 51.2s22.9 51.198 51.2 51.198S406.2 261 406.2 232.7c-.098-28.3-23-51.199-51.2-51.199zm0 86.398c-19.398 0-35.2-15.796-35.2-35.199 0-19.398 15.802-35.199 35.2-35.199s35.2 15.8 35.2 35.2c0 19.402-15.802 35.198-35.2 35.198zm0 0" fill="#ffffff" opacity="1" data-original="#000000"></path></g></svg>