<svg xmlns="http://www.w3.org/2000/svg" version="1.1" xmlns:xlink="http://www.w3.org/1999/xlink" width="512" height="512" x="0" y="0" viewBox="0 0 510 510" style="enable-background:new 0 0 512 512" xml:space="preserve" fill-rule="evenodd" class=""><g><path d="M44.026 57.945c-8.737-2.928-15.041-11.186-15.041-20.904C28.985 24.876 38.862 15 51.026 15c12.165 0 22.041 9.876 22.041 22.041 0 9.718-6.303 17.976-15.041 20.904v52.312h101.201a7 7 0 0 1 7 7v49.347a125.405 125.405 0 0 0-14 7.21v-49.557H51.026a7 7 0 0 1-7-7zm174.506-.298c-8.301-3.162-14.206-11.2-14.206-20.606 0-12.165 9.876-22.041 22.041-22.041s22.041 9.876 22.041 22.041c0 10.025-6.708 18.496-15.876 21.166v98.846a127.435 127.435 0 0 0-14-.963zm182.908.298v59.312a7 7 0 0 1-7 7H293.239v57.645a125.546 125.546 0 0 0-14-9.297v-55.348a7 7 0 0 1 7-7H387.44V57.945c-8.737-2.928-15.041-11.186-15.041-20.904 0-12.165 9.877-22.041 22.041-22.041 12.165 0 22.041 9.876 22.041 22.041 0 9.718-6.303 17.976-15.041 20.904zM147.427 428.419H113.94c-43.09 0-78.021-34.504-78.021-77.068v-.002c0-39.835 30.596-72.612 69.842-76.65 2.725-58.197 51.42-104.621 111.005-104.621 34.987 0 66.22 16.006 86.596 41.004 9.841-3.897 20.581-6.042 31.825-6.042 47.276 0 85.659 37.914 85.659 84.612 0 3.3-.192 6.556-.565 9.758 33.94 2.355 60.734 30.299 60.734 64.423v.002c0 35.669-29.273 64.584-65.383 64.584h-24.085V310.646c0-14.021-11.376-25.397-25.397-25.397H176.946c-16.289 0-29.519 13.206-29.519 29.519zm150.492 39.92c1.052 7.24 2.909 14.16 5.099 19.546a4.944 4.944 0 0 1-4.468 7.059c-14.348.056-43.887.056-58.19.056a4.998 4.998 0 0 1-4.534-7.106c2.178-5.365 3.92-12.299 4.874-19.555zm-136.492-63.314v-90.257c0-8.576 6.956-15.519 15.519-15.519H366.15c6.292 0 11.397 5.105 11.397 11.397v94.379zm216.12 14v19.794c0 8.564-6.955 15.52-15.519 15.52H176.946c-8.563 0-15.519-6.956-15.519-15.52v-19.794z" fill="#ec6b1a" opacity="1" data-original="#000000" class=""></path></g></svg>