<svg xmlns="http://www.w3.org/2000/svg" version="1.1" xmlns:xlink="http://www.w3.org/1999/xlink" width="512" height="512" x="0" y="0" viewBox="0 0 64 64" style="enable-background:new 0 0 512 512" xml:space="preserve" class=""><g><path d="M7.51 37.82H6a2 2 0 0 0-2 2v13.79a2.006 2.006 0 0 0 2 2h1.51a2.005 2.005 0 0 0 2-2V39.82a2 2 0 0 0-2-2zM25.98 38.7l-6.13.02v-7.85c0-1.01-.5-2.43-2.84-3.51a2.011 2.011 0 0 0-2.84 2.04 13.466 13.466 0 0 1-1.06 6.69 7.407 7.407 0 0 1-1.78 2.58 3.348 3.348 0 0 1 .18 1.15v13.79c-.016.911-.426 1.158.74 1.12h9.84a6.548 6.548 0 0 0 6.45-5.59l.91-6.44a3.514 3.514 0 0 0-3.47-4zM58 37.82h-1.51a2 2 0 0 0-2 2v13.79a2.08 2.08 0 0 0 .13.71 2.004 2.004 0 0 0 1.87 1.29H58a2.006 2.006 0 0 0 2-2V39.82a2 2 0 0 0-2-2zM52.67 38.67c-2.444-2.036-3.204-7.387-2.84-9.27a2.011 2.011 0 0 0-2.84-2.04c-2.34 1.08-2.84 2.5-2.84 3.51l.02 7.83h-6.15a3.524 3.524 0 0 0-2.66 1.21 3.489 3.489 0 0 0-.81 2.79l.91 6.44a6.548 6.548 0 0 0 6.45 5.59h9.84c1.173.073.738-.292.74-1.12.08-.54-.197-14.874.18-14.94zM43 19.39a11 11 0 0 0-22 0c.598 14.594 21.405 14.59 22 0zm-6.13-2.07-5.55 5.55a.99.99 0 0 1-1.42 0l-2.77-2.77a1.008 1.008 0 0 1 0-1.42.996.996 0 0 1 1.41 0l2.07 2.07 4.85-4.84a.997.997 0 0 1 1.41 1.41z" fill="#eb6b1a" opacity="1" data-original="#000000" class=""></path></g></svg>