<svg xmlns="http://www.w3.org/2000/svg" version="1.1" xmlns:xlink="http://www.w3.org/1999/xlink" width="512" height="512" x="0" y="0" viewBox="0 0 512 512" style="enable-background:new 0 0 512 512" xml:space="preserve" class=""><g><path d="M126.536 490.378c.799 2.983-.987 6.077-3.969 6.876l-22.599 6.055c-2.982.799-6.076-.988-6.875-3.97l-40.5-151.151c-.799-2.983.987-6.077 3.969-6.876l22.6-6.055c2.981-.799 6.075.988 6.875 3.97zm218.21-360.015c-4.543-3.887-11.376-3.356-15.264 1.187l-33.18 38.709-15.017-16.724c-4.004-4.449-10.857-4.81-15.306-.806s-4.81 10.857-.806 15.306l23.254 25.897c4.536 5.04 12.521 4.688 16.635-.625l40.87-47.681c3.888-4.542 3.356-11.376-1.186-15.263zm114.852 50.489c0 5.19-4.247 9.437-9.437 9.437h-17.187c-10.396 0-19.271 5.931-23.25 15.535-3.978 9.604-1.896 20.074 5.455 27.425l12.153 12.153c3.67 3.67 3.67 9.676 0 13.346l-25.76 25.761c-3.67 3.67-9.676 3.67-13.345 0l-12.153-12.153c-7.351-7.351-17.821-9.433-27.425-5.455s-15.535 12.854-15.535 23.249v17.187c0 5.191-4.246 9.437-9.437 9.437h-36.431c-5.191 0-9.437-4.247-9.437-9.437v-17.186c0-10.395-5.931-19.271-15.535-23.25-9.604-3.978-20.074-1.896-27.425 5.455l-12.153 12.153c-3.67 3.67-9.676 3.67-13.345 0l-25.761-25.761c-3.67-3.67-3.67-9.676 0-13.346l12.153-12.153c7.351-7.351 9.434-17.82 5.456-27.425-3.978-9.604-12.854-15.535-23.25-15.535h-17.187c-5.191 0-9.437-4.246-9.437-9.437v-36.431c0-5.19 4.246-9.437 9.437-9.437h17.187c10.395 0 19.271-5.931 23.25-15.535 3.978-9.604 1.895-20.074-5.456-27.425L183.59 79.871c-3.67-3.67-3.67-9.676 0-13.346l25.761-25.761c3.67-3.67 9.676-3.67 13.345 0l12.153 12.153c7.351 7.35 17.821 9.433 27.425 5.455s15.535-12.854 15.535-23.25V17.937c0-5.19 4.247-9.437 9.437-9.437h36.431c5.191 0 9.437 4.246 9.437 9.437v17.187c0 10.395 5.931 19.271 15.535 23.25 9.604 3.978 20.074 1.895 27.425-5.455l12.153-12.153c3.67-3.67 9.675-3.67 13.345 0l25.76 25.761c3.67 3.67 3.67 9.675 0 13.346L415.18 92.024c-7.35 7.351-9.433 17.821-5.455 27.425s12.854 15.535 23.25 15.535h17.187c5.19 0 9.437 4.247 9.437 9.437zm-76.12-18.216c0-43.086-34.929-78.015-78.015-78.015s-78.015 34.929-78.015 78.015 34.929 78.015 78.015 78.015 78.015-34.929 78.015-78.015zm38.858 186.818-92.708 53.527c-5.036 6.787-12.285 11.986-21.013 14.324l-46.698 12.512c-10.089 2.704-20.708 2.942-30.82.214a7.49 7.49 0 0 1 3.867-14.473c7.781 2.099 15.329 1.864 23.085-.214l46.698-12.512c12.62-3.381 20.205-16.451 16.809-29.128-3.379-12.61-16.522-20.188-29.13-16.81l-31.934 8.557c-7.939 2.127-15.762 2.683-23.437 1.673-7.5-.987-14.629-3.743-21.79-7.462-13.517-7.02-29.501-17.013-43.013-24.815-10.937-6.315-24.057-1.39-41.214 5.05-8.069 3.029-16.917 6.35-26.851 9.117l33.622 125.481c31.05-4.605 52.751 1.584 80.184 9.407 17.405 4.963 30.169 10.39 47.296.501 58.707-33.896 117.762-67.509 176.235-101.737 9.072-5.236 12.233-17.125 6.996-26.185-5.245-9.083-17.098-12.282-26.184-7.027z" fill="#eb6b1a" opacity="1" data-original="#000000"></path></g></svg>