<svg xmlns="http://www.w3.org/2000/svg" version="1.1" xmlns:xlink="http://www.w3.org/1999/xlink" width="512" height="512" x="0" y="0" viewBox="0 0 32 32" style="enable-background:new 0 0 512 512" xml:space="preserve" class=""><g><path d="M29 22h-3.37a14.14 14.14 0 0 1-4 5H29a2 2 0 0 0 2-2v-1a2 2 0 0 0-2-2zM29 16h-2a13.88 13.88 0 0 1-.94 5H29a2 2 0 0 0 2-2v-1a2 2 0 0 0-2-2zM29 10h-3.37A14 14 0 0 1 27 15h2a2 2 0 0 0 2-2v-1a2 2 0 0 0-2-2zM13 4a12 12 0 1 0 12 12A12 12 0 0 0 13 4zm4 9h-5a1 1 0 0 0 0 2h2a3 3 0 0 1 0 6v2h-2v-2H9v-2h5a1 1 0 0 0 0-2h-2a3 3 0 0 1 0-6V9h2v2h3z" fill="#eb6b1a" opacity="1" data-original="#000000" class=""></path></g></svg>