<svg xmlns="http://www.w3.org/2000/svg" version="1.1" xmlns:xlink="http://www.w3.org/1999/xlink" width="512" height="512" x="0" y="0" viewBox="0 0 512 512" style="enable-background:new 0 0 512 512" xml:space="preserve" class=""><g><path fill-rule="evenodd" d="m455.36 233.717-2.349-60.943c-.745-19.308 29.293-22.025 32.338-2.912l15.778 99.066c3.121 19.597-2.09 37.938-16.123 51.971l-80.566 80.566c-6.749 6.749-9.914 15.205-9.255 24.726l.104 1.496H288.972l.593-49.544c.184-15.352 5.472-28.566 16.329-39.423l22.286-22.286c7.237-7.237 15.106-11.781 24.993-14.43l10.783-2.889 54.258-54.258c8.703-8.703 22.943-8.703 31.646 0 3.996 3.996 5.972 8.814 6.458 14.07.402 6.429-1.577 12.695-6.458 17.576l-46.259 46.259a6 6 0 0 0 8.485 8.485l46.259-46.259c14.495-14.495 13.114-38.542-2.985-51.273zm-398.719 0 2.349-60.943c.745-19.308-29.293-22.025-32.338-2.912l-15.778 99.066c-3.121 19.597 2.09 37.938 16.123 51.971l80.566 80.566c6.749 6.749 9.914 15.205 9.255 24.726l-.104 1.496h106.315l-.593-49.544c-.184-15.352-5.472-28.566-16.329-39.423l-22.286-22.286c-7.237-7.237-15.106-11.781-24.993-14.43l-10.783-2.889-54.259-54.258c-8.703-8.703-22.943-8.703-31.646 0-3.996 3.996-5.972 8.814-6.458 14.07-.402 6.429 1.577 12.695 6.458 17.576l46.259 46.259a6 6 0 1 1-8.486 8.485l-46.259-46.259c-14.495-14.495-13.114-38.542 2.985-51.273zm186.005 252.514H96.411v-46.543h146.235zM256 304.924c126.794-61.091 117.131-164.444 117.357-236.09-40.282 0-87.54-13.249-117.356-43.065-29.816 29.816-77.074 43.065-117.356 43.065.226 71.646-9.437 174.999 117.356 236.09zm-55.251-129.196 31.156 42.375c6.423 8.75 19.281 8.272 25.413-.272l54.954-74.744c5.103-6.962 3.596-16.743-3.366-21.847-6.962-5.103-16.743-3.596-21.846 3.366l-42.548 57.87-18.549-25.229c-5.103-6.962-14.885-8.469-21.846-3.366-6.962 5.103-8.469 14.884-3.366 21.846zm68.605 310.503h146.235v-46.543H269.355v46.543z" fill="#eb6b1a" opacity="1" data-original="#000000"></path></g></svg>