<svg xmlns="http://www.w3.org/2000/svg" version="1.1" xmlns:xlink="http://www.w3.org/1999/xlink" width="512" height="512" x="0" y="0" viewBox="0 0 512 512" style="enable-background:new 0 0 512 512" xml:space="preserve" class=""><g><path d="M165 301c-8.276 0-15 6.724-15 15s6.724 15 15 15 15-6.724 15-15-6.724-15-15-15z" fill="#ec6b1a" opacity="1" data-original="#000000" class=""></path><path d="M285 211H45c-24.814 0-45 20.186-45 45v180c0 24.814 20.186 45 45 45h240c24.814 0 45-20.186 45-45V256c0-24.814-20.186-45-45-45zM180 358.237V406c0 8.291-6.709 15-15 15s-15-6.709-15-15v-47.763c-17.422-6.213-30-22.707-30-42.237 0-24.814 20.186-45 45-45s45 20.186 45 45c0 19.53-12.578 36.024-30 42.237zM467 301c-19.53 0-36.024 12.578-42.237 30H360v30h64.763c6.213 17.422 22.707 30 42.237 30 24.814 0 45-20.186 45-45s-20.186-45-45-45zM467 421c-8.221 0-15.831 2.379-22.471 6.244l-26.06-30.912A14.996 14.996 0 0 0 407 391h-47v30h40.027l24.886 29.52C423.124 455.367 422 460.538 422 466c0 24.814 20.186 46 45 46s45-21.186 45-46-20.186-45-45-45zM467 181c-24.814 0-45 20.186-45 45 0 7.286 1.904 14.07 4.99 20.164L400.979 271H360v30h47c3.853 0 7.573-1.494 10.356-4.16l31.258-29.863C454.241 269.513 460.438 271 467 271c24.814 0 45-20.186 45-45s-20.186-45-45-45zM165 0C98.833 0 45 53.833 45 120v61h60v-61c0-33.091 26.909-60 60-60s60 26.909 60 60v61h60v-61C285 53.833 231.167 0 165 0z" fill="#ec6b1a" opacity="1" data-original="#000000" class=""></path></g></svg>