<svg xmlns="http://www.w3.org/2000/svg" version="1.1" xmlns:xlink="http://www.w3.org/1999/xlink" width="512" height="512" x="0" y="0" viewBox="0 0 14 14" style="enable-background:new 0 0 512 512" xml:space="preserve" class=""><g><path d="m9.637 7.793-3.43-3.43a1.006 1.006 0 0 0-.96-.263l-3.133.82a.993.993 0 0 0-.747.977A19.436 19.436 0 0 1 .044 13.1a.663.663 0 0 0 .853.853 19.436 19.436 0 0 1 7.203-1.32.993.993 0 0 0 .977-.747L9.9 8.753a1.006 1.006 0 0 0-.263-.96zM6.53 9.843a1.678 1.678 0 1 1 0-2.373 1.68 1.68 0 0 1 0 2.373z" fill="#eb6b1a" opacity="1" data-original="#000000" class=""></path><rect width="7.667" height="4.016" x="6.451" y="1.708" rx="1" transform="rotate(45 10.285 3.715)" fill="#eb6b1a" opacity="1" data-original="#000000" class=""></rect></g></svg>