<svg xmlns="http://www.w3.org/2000/svg" version="1.1" xmlns:xlink="http://www.w3.org/1999/xlink" width="512" height="512" x="0" y="0" viewBox="0 0 64 64" style="enable-background:new 0 0 512 512" xml:space="preserve" class=""><g><path d="M52.59 11.32H31.88a3.112 3.112 0 0 1-2.18-.88l-3.76-4.61A4.897 4.897 0 0 0 22.06 4H11.41a5.123 5.123 0 0 0-5.12 5.12v31.95a5.123 5.123 0 0 0 5.12 5.12h5.45a15.56 15.56 0 0 1 .15-3.62 3.939 3.939 0 0 1-.51-4.72l1.56-2.7a4.061 4.061 0 0 1 4.34-1.93 15.638 15.638 0 0 1 4.19-2.41A4.041 4.041 0 0 1 30.44 28h3.12a4.024 4.024 0 0 1 3.83 2.79 15.529 15.529 0 0 1 4.21 2.45 4.017 4.017 0 0 1 4.36 1.95c.865 1.614 2.634 3.718 1.94 5.72a4.109 4.109 0 0 1-.9 1.67 16.224 16.224 0 0 1 .14 3.61h5.45a5.123 5.123 0 0 0 5.12-5.12V16.44a5.143 5.143 0 0 0-5.12-5.12Z" fill="#eb6b1a" opacity="1" data-original="#000000" class=""></path><path d="M54.91 9.72a4.677 4.677 0 0 0-4.61-3.89H28.52l2.64 3.23c.964.796 23.27-.317 23.75.66ZM44.79 48.22a13.611 13.611 0 0 0 .01-6.47l.22-.12a2.053 2.053 0 0 0 .75-2.78l-1.56-2.7a2.11 2.11 0 0 0-3.03-.61 13.476 13.476 0 0 0-5.59-3.25v-.25A2.034 2.034 0 0 0 33.56 30h-3.12a2.09 2.09 0 0 0-2.04 2.32 13.498 13.498 0 0 0-5.61 3.21l-.22-.12a2.039 2.039 0 0 0-2.78.74l-1.56 2.7a2.108 2.108 0 0 0 .98 2.93 13.61 13.61 0 0 0-.01 6.47 2.07 2.07 0 0 0-.97 2.9l1.56 2.7a2.103 2.103 0 0 0 3.03.61 13.476 13.476 0 0 0 5.59 3.25A2.066 2.066 0 0 0 30.44 60h3.12a2.09 2.09 0 0 0 2.04-2.32 13.125 13.125 0 0 0 5.58-3.22 2.097 2.097 0 0 0 3.03-.61l1.56-2.7a2.11 2.11 0 0 0-.98-2.93ZM32 52.5a7.504 7.504 0 0 1-7.5-7.5c.348-9.927 14.654-9.925 15 0a7.504 7.504 0 0 1-7.5 7.5Z" fill="#eb6b1a" opacity="1" data-original="#000000" class=""></path></g></svg>