<svg xmlns="http://www.w3.org/2000/svg" version="1.1" xmlns:xlink="http://www.w3.org/1999/xlink" width="512" height="512" x="0" y="0" viewBox="0 0 50 50" style="enable-background:new 0 0 512 512" xml:space="preserve" class=""><g><path d="M48.6 30c-2.5-1.2-3.9-3-3.9-5s1.5-3.9 3.9-5c.2-.1.3-.3.3-.6-.6-2.6-1.6-5.1-3-7.4-.1-.2-.4-.3-.6-.2-2.6.9-4.9.6-6.3-.8s-1.7-3.8-.8-6.4c.1-.2 0-.5-.2-.6-2.3-1.4-4.8-2.5-7.4-3.1-.2 0-.5.1-.6.3-1.2 2.4-3 3.9-5 3.9s-3.8-1.4-5-3.9c-.1-.1-.3-.2-.6-.2-2.6.6-5.1 1.6-7.4 3.1-.2.1-.3.4-.2.6.9 2.6.6 5-.8 6.4s-3.8 1.7-6.3.8c-.2-.1-.5 0-.6.2-1.4 2.2-2.5 4.7-3.1 7.4 0 .1.2.4.4.5 2.4 1.2 3.9 3 3.9 5s-1.4 3.8-3.9 5.1c-.2.1-.3.3-.3.6.6 2.6 1.7 5.1 3 7.3.1.2.4.3.6.2 2.6-.9 4.9-.6 6.3.8s1.7 3.7.8 6.4c-.1.2 0 .5.2.6 2.3 1.4 4.8 2.5 7.4 3.1h.1c.2 0 .4-.1.4-.3 1.2-2.5 3.1-3.9 5-3.9 2 0 3.8 1.4 5 3.9.1.2.3.3.6.3 2.6-.6 5.1-1.6 7.4-3.1.2-.1.3-.4.2-.6-.9-2.6-.6-4.9.8-6.3s3.7-1.7 6.3-.8c.2.1.5 0 .6-.2 1.4-2.3 2.5-4.8 3.1-7.4 0-.3-.1-.6-.3-.7M25 40.4c-8.5 0-15.4-6.9-15.4-15.4S16.5 9.6 25 9.6 40.4 16.5 40.4 25 33.5 40.4 25 40.4" fill="#df671b" opacity="1" data-original="#000000" class=""></path><path d="M35.5 25c0-.3.2-.5.5-.5h.9c-.1-1.8-.5-3.5-1.3-5l-.8.4c-.1 0-.2.1-.3.1-.2 0-.3-.1-.4-.3s-.1-.5.2-.7l.8-.4c-.9-1.5-2.2-2.7-3.7-3.7l-.4.8c-.1.2-.3.3-.4.3s-.2 0-.3-.1c-.2-.1-.3-.5-.2-.7l.5-.8c-1.5-.8-3.2-1.3-5-1.3v.9c0 .3-.2.5-.5.5s-.5-.2-.5-.5v-.9c-1.8.1-3.5.6-5 1.3l.4.8c.1.2.1.6-.2.7-.1 0-.2.1-.3.1-.2 0-.3-.1-.4-.3l-.4-.8c-1.5.9-2.7 2.2-3.7 3.7l.8.4c.2.1.3.4.2.7-.1.2-.3.3-.4.3s-.2 0-.3-.1l-.8-.4c-.8 1.5-1.3 3.2-1.3 5h.8c.3 0 .5.2.5.5s-.2.5-.5.5h-.9c.1 1.8.6 3.5 1.3 5l.8-.4c.2-.1.5-.1.7.2.1.2 0 .5-.2.7l-.8.4c.9 1.5 2.2 2.7 3.7 3.7l.4-.8c.1-.2.4-.3.7-.2.2.1.3.4.2.7l-.4.8c1.5.8 3.2 1.3 5 1.3V36c0-.3.2-.5.5-.5s.5.2.5.5v.9c1.8-.1 3.5-.5 5-1.3l-.5-.8c-.1-.2 0-.5.2-.7.2-.1.5-.1.7.2l.4.8c1.5-.9 2.7-2.2 3.7-3.7l-.7-.4c-.2-.1-.3-.4-.2-.7.1-.2.4-.3.7-.2l.8.4c.8-1.5 1.3-3.2 1.3-5H36c-.2 0-.5-.2-.5-.5M30 30c-.1.1-.2.2-.4.2-.1 0-.3-.1-.4-.2l-3-3c-.4.2-.8.4-1.3.4-1.3 0-2.3-1.1-2.3-2.3 0-1.1.8-2.1 1.8-2.3v-4.2c0-.3.2-.5.5-.5s.5.2.5.5v4.2c1 .2 1.8 1.2 1.8 2.3 0 .5-.1.9-.4 1.3l3 3c.3.1.3.4.2.6" fill="#df671b" opacity="1" data-original="#000000" class=""></path><path d="M26.3 25c0 .7-.6 1.3-1.3 1.3s-1.3-.6-1.3-1.3.6-1.3 1.3-1.3 1.3.6 1.3 1.3" fill="#df671b" opacity="1" data-original="#000000" class=""></path></g></svg>