<svg xmlns="http://www.w3.org/2000/svg" version="1.1" xmlns:xlink="http://www.w3.org/1999/xlink" width="512" height="512" x="0" y="0" viewBox="0 0 20 20" style="enable-background:new 0 0 512 512" xml:space="preserve" class=""><g><circle cx="10" cy="5" r="5" fill="#eb6b1a" opacity="1" data-original="#000000" class=""></circle><path d="m13.3 11.6-.7 6.2L11 13l1-1.3c.2-.3-.1-.7-.5-.7h-2c-.4 0-.6.4-.5.7l.9 1.3-1.6 4.8-.8-6.5C3.7 12.5 1 15.9 1 20h18c0-3.8-2.4-7.1-5.7-8.4zM6 18H4v-1.5c0-.3.2-.5.5-.5h1c.3 0 .5.2.5.5z" fill="#eb6b1a" opacity="1" data-original="#000000" class=""></path></g></svg>