<svg xmlns="http://www.w3.org/2000/svg" version="1.1" xmlns:xlink="http://www.w3.org/1999/xlink" width="512" height="512" x="0" y="0" viewBox="0 0 64 64" style="enable-background:new 0 0 512 512" xml:space="preserve" class=""><g><path d="M17.07 36.183v-6.417a.75.75 0 0 0-1.227-.578L2.522 40.187a.75.75 0 0 0 0 1.156l13.32 11a.75.75 0 0 0 1.227-.578v-5.948c5.861 1.261 10.18 6.522 10.18 12.581v2.594c0 .414.336.75.75.75h8a.75.75 0 0 0 .75-.75v-2.594c0-11.241-8.59-20.868-19.68-22.216z" fill="#eb6b1a" opacity="1" data-original="#000000" class=""></path><path d="m61.478 30.347-13.32-11a.75.75 0 0 0-1.227.578v6.316a20.824 20.824 0 0 0-10.18 3.43V17.064h6.25a.75.75 0 0 0 .578-1.227L32.578 2.516c-.284-.345-.872-.345-1.156 0l-11 13.32A.75.75 0 0 0 21 17.063h6.25v21.295c4.322 2.806 7.687 6.943 9.5 11.784v-2.93c0-5.885 4.412-10.767 10.18-11.441v6.154a.75.75 0 0 0 1.227.578l13.32-11a.75.75 0 0 0 0-1.156z" fill="#eb6b1a" opacity="1" data-original="#000000" class=""></path></g></svg>