<svg xmlns="http://www.w3.org/2000/svg" version="1.1" xmlns:xlink="http://www.w3.org/1999/xlink" width="512" height="512" x="0" y="0" viewBox="0 0 24 24" style="enable-background:new 0 0 512 512" xml:space="preserve" class=""><g><path d="M17.233 15.328a4.773 4.773 0 0 0-4.7-4.078h-1.064a4.773 4.773 0 0 0-4.7 4.078l-.51 3.566a.75.75 0 0 0 .213.636c.2.2 1.427 1.22 5.53 1.22s5.327-1.016 5.53-1.22a.75.75 0 0 0 .213-.636zM7.56 11.8a5.7 5.7 0 0 0-1.78 3.39l-.37 2.56c-2.97-.02-3.87-1.1-4.02-1.32a.739.739 0 0 1-.13-.56l.22-1.24a4.093 4.093 0 0 1 6.08-2.83zM22.74 15.87a.739.739 0 0 1-.13.56c-.15.22-1.05 1.3-4.02 1.32l-.37-2.56a5.7 5.7 0 0 0-1.78-3.39 4.093 4.093 0 0 1 6.08 2.83zM7.73 9.6a2.714 2.714 0 0 1-2.23 1.15A2.75 2.75 0 1 1 7.15 5.8 4.812 4.812 0 0 0 7 7a5.01 5.01 0 0 0 .73 2.6zM21.25 8a2.748 2.748 0 0 1-2.75 2.75 2.714 2.714 0 0 1-2.23-1.15A5.01 5.01 0 0 0 17 7a4.812 4.812 0 0 0-.15-1.2 2.75 2.75 0 0 1 4.4 2.2z" fill="#eb6b1a" opacity="1" data-original="#000000" class=""></path><circle cx="12" cy="7" r="3.75" fill="#eb6b1a" opacity="1" data-original="#000000" class=""></circle></g></svg>