<svg xmlns="http://www.w3.org/2000/svg" version="1.1" xmlns:xlink="http://www.w3.org/1999/xlink" width="512" height="512" x="0" y="0" viewBox="0 0 512 512" style="enable-background:new 0 0 512 512" xml:space="preserve" class=""><g><path d="M256.005 438.453c-39.951 0-72.454 32.993-72.454 73.547h144.907c0-40.554-32.502-73.547-72.453-73.547z" fill="#eb6b1a" opacity="1" data-original="#000000" class=""></path><circle cx="256.005" cy="379.727" r="28.727" transform="rotate(-67.48 256.136 379.676)" fill="#eb6b1a" opacity="1" data-original="#000000" class=""></circle><path d="M466.326 486.115c-.31-.294-31.274-30.058-61.792-85.965-26.801-49.1-58.517-128.626-61.328-233.15h40.799c13.093 0 19.899-15.673 10.961-25.24l-128-137a15.002 15.002 0 0 0-21.921 0l-128 137c-8.939 9.567-2.133 25.24 10.96 25.24h40.799c-2.811 104.524-34.527 184.05-61.328 233.15-30.517 55.907-61.482 85.671-61.775 85.949a14.999 14.999 0 0 0 10.305 25.9h97.546c0-27.385 10.625-53.275 29.918-72.901 8.439-8.585 18.075-15.492 28.516-20.561-9.142-10.356-14.707-23.942-14.707-38.811 0-32.382 26.345-58.727 58.727-58.727s58.727 26.345 58.727 58.727c0 14.868-5.565 28.454-14.707 38.811 10.441 5.07 20.077 11.977 28.516 20.562 19.292 19.625 29.917 45.516 29.917 72.9h97.547a14.996 14.996 0 0 0 13.921-9.441 15.019 15.019 0 0 0-3.601-16.443z" fill="#eb6b1a" opacity="1" data-original="#000000" class=""></path></g></svg>