<svg xmlns="http://www.w3.org/2000/svg" version="1.1" xmlns:xlink="http://www.w3.org/1999/xlink" width="512" height="512" x="0" y="0" viewBox="0 0 512 512" style="enable-background:new 0 0 512 512" xml:space="preserve" class=""><g><path d="M75 432v35c0 24.813 20.187 45 45 45h30c24.813 0 45-20.187 45-45v-35zM135 122C60.561 122 0 182.561 0 257c0 40.047 17.625 77.778 48.354 103.521 12.968 10.862 21.694 25.48 25.073 41.479H120v-98.787l-30.607-30.606c-5.858-5.858-5.858-15.355 0-21.213s15.355-5.858 21.213 0L135 275.787l24.394-24.394c5.858-5.858 15.355-5.858 21.213 0s5.858 15.355 0 21.213L150 303.213V402h46.573c3.379-16 12.105-30.617 25.073-41.479C252.375 334.778 270 297.047 270 257c0-74.439-60.561-135-135-135zM493.323 398.428c.165-2.216.245-4.334.245-6.428s-.08-4.213-.245-6.429l14.104-13.638a14.999 14.999 0 0 0 2.563-18.283l-25-43.302a15.007 15.007 0 0 0-17.116-6.922l-18.891 5.404a99.909 99.909 0 0 0-11.103-6.424l-4.761-19.045A15 15 0 0 0 418.567 272h-50a15 15 0 0 0-14.552 11.362l-4.761 19.045a99.752 99.752 0 0 0-11.103 6.424l-18.891-5.404a15 15 0 0 0-17.116 6.922l-25 43.302a15 15 0 0 0 2.563 18.283l14.104 13.638c-.165 2.216-.245 4.335-.245 6.429s.08 4.212.245 6.428l-14.104 13.638a14.999 14.999 0 0 0-2.563 18.283l25 43.302a15.006 15.006 0 0 0 17.116 6.922l18.89-5.404a99.905 99.905 0 0 0 11.104 6.425l4.761 19.045a14.999 14.999 0 0 0 14.552 11.362h50a15 15 0 0 0 14.552-11.362l4.761-19.045a99.749 99.749 0 0 0 11.104-6.425l18.89 5.404a14.997 14.997 0 0 0 17.116-6.922l25-43.302a15 15 0 0 0-2.563-18.283zM393.567 437c-24.813 0-45-20.187-45-45s20.187-45 45-45 45 20.187 45 45-20.187 45-45 45z" fill="#eb6b1a" opacity="1" data-original="#000000" class=""></path><path d="M444.174 174.394c-5.858-5.858-15.355-5.858-21.213 0l-14.394 14.394V75c0-41.355-33.645-75-75-75H195c-41.355 0-75 33.645-75 75v17.689c4.942-.448 9.943-.689 15-.689s10.058.241 15 .689V75c0-24.813 20.187-45 45-45h138.567c24.813 0 45 20.187 45 45v113.787l-14.394-14.394c-5.858-5.858-15.355-5.858-21.213 0-5.858 5.858-5.858 15.355 0 21.213l40 40c5.858 5.858 15.355 5.858 21.213 0l40-40c5.859-5.857 5.859-15.355.001-21.212z" fill="#eb6b1a" opacity="1" data-original="#000000" class=""></path></g></svg>