<svg xmlns="http://www.w3.org/2000/svg" version="1.1" xmlns:xlink="http://www.w3.org/1999/xlink" width="512" height="512" x="0" y="0" viewBox="0 0 64 64" style="enable-background:new 0 0 512 512" xml:space="preserve" class=""><g><path d="M29 31a2 2 0 0 0-2 2v12h10V33a2 2 0 0 0-2-2z" fill="#eb6b1a" opacity="1" data-original="#000000"></path><rect width="56" height="9" x="4" y="47" rx="2" fill="#eb6b1a" opacity="1" data-original="#000000"></rect><path d="M45 19a2 2 0 0 0-2 2v24h10V21a2 2 0 0 0-2-2z" fill="#eb6b1a" opacity="1" data-original="#000000"></path><path d="M16 20.12a4 4 0 0 0 3-1.32l9 4.72a4 4 0 0 0 8-.11 3.54 3.54 0 0 0-.07-.73l9.64-7.51A4 4 0 1 0 44 12a3.8 3.8 0 0 0 .34 1.58l-9.29 7.24a4 4 0 0 0-6.57.68L19.89 17a3.82 3.82 0 0 0 .11-.9 4 4 0 1 0-4 4z" fill="#eb6b1a" opacity="1" data-original="#000000"></path><circle cx="15.75" cy="27.62" r="5.21" fill="#eb6b1a" opacity="1" data-original="#000000"></circle><path d="M7.33 44.41h16.84a1 1 0 0 0 1-1v-2.95A6.46 6.46 0 0 0 19.09 34a7.29 7.29 0 0 1-6.68 0 6.46 6.46 0 0 0-6.08 6.45v2.95a1 1 0 0 0 1 1.01z" fill="#eb6b1a" opacity="1" data-original="#000000"></path></g></svg>