<svg xmlns="http://www.w3.org/2000/svg" version="1.1" xmlns:xlink="http://www.w3.org/1999/xlink" width="512" height="512" x="0" y="0" viewBox="0 0 32 32" style="enable-background:new 0 0 512 512" xml:space="preserve" class=""><g><path d="M4 18c0-1.654 1.346-3 3-3s3 1.346 3 3h2v-3.27c0-.747.86-1.238 1.505-.863.65.378 1.495-.114 1.495-.867 0-.726-.856-1.243-1.495-.867-.651.383-1.505-.11-1.505-.863V6H3C1.346 6 0 7.346 0 9v9z" fill="#eb6b1a" opacity="1" data-original="#000000" class=""></path><path d="M12 28c-1.654 0-3-1.346-3-3s1.346-3 3-3v-2H8.73c-.746 0-1.251-.842-.863-1.506C8.242 17.854 7.757 17 7 17c-.724 0-1.24.858-.867 1.494.384.654-.106 1.506-.863 1.506H0v9c0 1.654 1.346 3 3 3h9z" fill="#eb6b1a" opacity="1" data-original="#000000" class=""></path><path d="M22 20c0 1.654-1.346 3-3 3s-3-1.346-3-3h-2v3.27c0 .749-.859 1.24-1.505.863-.646-.377-1.495.113-1.495.867 0 .729.855 1.244 1.495.867.648-.381 1.505.118 1.505.863V32h9c1.654 0 3-1.346 3-3v-9zM29 0H19a1 1 0 0 0-1 1v4.27c0 .758.852 1.244 1.506.863C20.16 5.75 21 6.255 21 7c0 .73-.854 1.245-1.494.867-.65-.383-1.506.118-1.506.863V13a1 1 0 0 0 1 1h3c0 1.654 1.346 3 3 3s3-1.346 3-3h3a1 1 0 0 0 1-1V3c0-1.654-1.346-3-3-3z" fill="#eb6b1a" opacity="1" data-original="#000000" class=""></path></g></svg>