<svg xmlns="http://www.w3.org/2000/svg" version="1.1" xmlns:xlink="http://www.w3.org/1999/xlink" width="512" height="512" x="0" y="0" viewBox="0 0 375.049 375.049" style="enable-background:new 0 0 512 512" xml:space="preserve" class=""><g><path d="M318.774 149.349h-18.4v-32.6c0-57.3-41.1-108.5-98-115.8-68.8-8.8-127.7 44.8-127.7 111.9v36.6h-18.4c-10.4 0-18.8 8.4-18.8 18.8v206.8h300.1v-206.9c0-10.4-8.4-18.8-18.8-18.8zm-112.6 126.5v23.9c0 10.4-8.4 18.8-18.8 18.8s-18.8-8.4-18.8-18.8v-24.1c-11.1-6.5-18.6-18.5-18.6-32.3 0-20.8 16.8-37.6 37.6-37.6s37.6 16.8 37.6 37.6c0 13.9-7.7 26-19 32.5zm56.6-126.5h-150.4v-36.6c0-41.5 33.7-75.2 75.2-75.2s75.2 33.7 75.2 75.2v36.6z" fill="#eb6b1a" opacity="1" data-original="#000000" class=""></path></g></svg>