<svg xmlns="http://www.w3.org/2000/svg" version="1.1" xmlns:xlink="http://www.w3.org/1999/xlink" width="512" height="512" x="0" y="0" viewBox="0 0 1707 1707" style="enable-background:new 0 0 512 512" xml:space="preserve" fill-rule="evenodd" class=""><g><path d="M939 1627H767c-42 0-75-34-75-75v-162c-56-15-110-37-161-67l-114 115c-30 29-77 29-106 0l-122-122c-29-29-29-76 0-105l115-115c-30-50-52-104-66-160H75c-41 0-75-34-75-75V698l1-1h511c-50 219 116 428 341 428 224 0 390-208 341-428h511c3 49-1 114-1 163 0 42-33 75-75 75h-162c-15 56-37 110-66 161l114 114c30 29 30 77 0 106l-121 122c-29 29-77 29-106 0l-115-115c-50 29-104 52-160 66v163c1 41-33 75-74 75z" fill="#eb6b1a" opacity="1" data-original="#000000"></path><path d="M994 875H876V567c59-10 105-62 105-124 0-69-56-125-125-125s-126 56-126 125c0 62 46 114 106 124v308H717c-27 0-49-22-49-50 0-55 17-118-17-143C397 501 504 80 856 80s458 422 205 602c-35 25-16 90-17 143 0 28-23 50-50 50zM917 968H794c-34 0-63-26-66-60h255c-3 34-32 60-66 60z" fill="#eb6b1a" opacity="1" data-original="#000000"></path><path d="M887 1029h-63c-28 0-50-22-50-50 0-21-5-51 20-51 8 0 144-6 144 20v31c0 28-23 50-51 50z" fill="#eb6b1a" opacity="1" data-original="#000000"></path></g></svg>