<svg xmlns="http://www.w3.org/2000/svg" version="1.1" xmlns:xlink="http://www.w3.org/1999/xlink" width="512" height="512" x="0" y="0" viewBox="0 0 511.971 511.971" style="enable-background:new 0 0 512 512" xml:space="preserve" class=""><g><path d="m432.442 147.232 32.276-50.573 25.29 16.14-32.276 50.573zM340.676 106.574l19.238-56.754 28.41 9.63-19.238 56.754zM240.967 34.313h30v60h-30zM123.707 59.293l28.41-9.63 19.238 56.755-28.41 9.63zM21.915 112.856l25.29-16.14 32.275 50.573-25.29 16.14zM390.967 244.313c0 18.28-3.603 35.99-10.462 52.329a78.1 78.1 0 0 1 2.742-.049c20.033 0 38.867 7.801 53.033 21.967l15.014 15.014c22.729-18.005 43.278-38.238 60.677-59.593-39.416-45.276-91.23-86.254-148.063-110.812 17.556 23.241 27.059 51.44 27.059 81.144zM308.339 368.78c-16.361 6.872-34.089 10.484-52.373 10.484-35.998 0-69.856-13.975-95.338-39.352-25.576-25.471-39.662-59.422-39.662-95.599 0-29.74 9.529-57.974 27.13-81.235a348.87 348.87 0 0 0-21.154 10.046C82.83 195.901 39.494 228.933 0 274.313c63.476 73.126 158.848 135 255.967 135 19.62 0 39.341-2.52 58.82-7.16a75.433 75.433 0 0 1-6.448-33.373z" fill="#eb6b1a" opacity="1" data-original="#000000"></path><path d="M383.246 326.592c-6.83 0-13.425 1.515-19.408 4.379l-23.76-23.76c13.111-17.49 20.889-39.239 20.889-62.898 0-58.311-47.217-104.951-105-104.951-57.823 0-105 46.683-105 104.951 0 58.311 47.218 104.951 105 104.951 23.548 0 45.33-7.744 62.88-20.858l23.798 23.798c-7.967 16.724-5.045 37.381 8.782 51.209l74.246 74.246 63.639-63.64-74.246-74.246c-8.5-8.5-19.8-13.181-31.82-13.181zm-127.279-37.279c-24.813 0-45-20.187-45-45s20.187-45 45-45 45 20.187 45 45-20.187 45-45 45z" fill="#eb6b1a" opacity="1" data-original="#000000"></path><circle cx="255.967" cy="244.313" r="15" fill="#eb6b1a" opacity="1" data-original="#000000"></circle></g></svg>