<svg xmlns="http://www.w3.org/2000/svg" version="1.1" xmlns:xlink="http://www.w3.org/1999/xlink" width="512" height="512" x="0" y="0" viewBox="0 0 128 128" style="enable-background:new 0 0 512 512" xml:space="preserve" class=""><g><path d="M80.91 89.773a12.743 12.743 0 0 0-12.438-2.174 3.414 3.414 0 0 1-4.478-3.287v-3.71A16.603 16.603 0 0 0 47.391 64H25.578L22.65 47.82a25.674 25.674 0 0 0 8.822-8.032l.004-.027A25.298 25.298 0 0 1 41.68 10.107a129.97 129.97 0 0 1-15.852 3.646 8.6 8.6 0 0 0-6.9 9.843 9.011 9.011 0 0 1-7.262 10.39 8.575 8.575 0 0 0-6.932 9.859l4.648 25.507c2.957 19.529 18.199 56.443 54.612 56.443v-10.849a3.449 3.449 0 0 1 4.657-3.19l.053.018a12.761 12.761 0 0 0 11.665-1.827 12.587 12.587 0 0 0 4.952-7.722 12.802 12.802 0 0 0-4.411-12.452Z" fill="#eb6b1a" opacity="1" data-original="#000000" class=""></path><path d="M116.353 33.987a9.035 9.035 0 0 1-7.338-10.212 8.547 8.547 0 0 0-6.834-10.016c-14.417-2.425-24.052-6.232-29.393-8.816-.798-.375-1.486-.735-2.097-1.048a14.047 14.047 0 0 0-6.697-1.69v13.827a3.402 3.402 0 0 1-4.473 3.25 12.918 12.918 0 0 0-6.999-.384 12.388 12.388 0 0 0-7.853 5.499 12.676 12.676 0 0 0-1.518 10.795 12.802 12.802 0 0 0 16.422 8.272 3.393 3.393 0 0 1 4.421 3.273v.645A16.606 16.606 0 0 0 80.597 64h21.798l-.47 2.566c0 .079-.03.172-.03.22a75.657 75.657 0 0 1-6.917 20.702 25.285 25.285 0 0 1-4.867 30.592c17.917-11.814 26.336-34.598 28.464-48.587l4.679-25.648a8.516 8.516 0 0 0-6.901-9.858Z" fill="#eb6b1a" opacity="1" data-original="#000000" class=""></path></g></svg>