<svg xmlns="http://www.w3.org/2000/svg" version="1.1" xmlns:xlink="http://www.w3.org/1999/xlink" width="512" height="512" x="0" y="0" viewBox="0 0 531.08 531.08" style="enable-background:new 0 0 512 512" xml:space="preserve" class=""><g><path d="m106.828 142.004 33.184-53.333h.068c9.52-14.892 26.112-24.82 45.084-24.82 19.02 0 35.666 9.955 45.159 24.888h70.441c9.493-14.933 26.133-24.888 45.159-24.888 18.972 0 35.564 9.928 45.084 24.82h.068l33.136 53.258a101.934 101.934 0 0 0-33.34-5.59 101.533 101.533 0 0 0-86.17 47.757h-78.322a101.535 101.535 0 0 0-86.169-47.757c-11.547 0-22.794 1.986-33.382 5.665zM531.08 347.82c0 65.959-53.448 119.406-119.34 119.406-42.059 0-78.873-21.84-100.09-54.738-10.546 13.973-27.247 23.051-46.11 23.051s-35.564-9.078-46.111-23.051c-21.209 32.898-58.031 54.74-100.089 54.74C53.448 467.229 0 413.779 0 347.82c0-23.732 7.004-45.766 18.972-64.328l-.136-.068L82.641 180.88c15.096-15.252 35.652-24.14 57.569-24.14a81.136 81.136 0 0 1 71.345 42.425l2.904 5.332h102.157l2.903-5.332a81.148 81.148 0 0 1 71.353-42.425c21.685 0 42.105 8.534 57.263 23.637l64.11 103.047-.136.068c11.967 18.563 18.971 40.596 18.971 64.328zm-337.416 0c0-41.004-33.252-74.256-74.324-74.256-41.072 0-74.324 33.252-74.324 74.256 0 41.07 33.252 74.322 74.324 74.322 41.072.001 74.324-33.251 74.324-74.322zm99.076 29.92c0-15.021-12.179-27.201-27.2-27.201-15.021 0-27.2 12.18-27.2 27.201s12.179 27.199 27.2 27.199c15.022 0 27.2-12.177 27.2-27.199zm193.324-29.92c0-41.004-33.252-74.256-74.324-74.256s-74.324 33.252-74.324 74.256c0 41.07 33.252 74.322 74.324 74.322s74.324-33.251 74.324-74.322z" fill="#eb6b1a" opacity="1" data-original="#000000" class=""></path></g></svg>