<svg xmlns="http://www.w3.org/2000/svg" version="1.1" xmlns:xlink="http://www.w3.org/1999/xlink" width="512" height="512" x="0" y="0" viewBox="0 0 64 64" style="enable-background:new 0 0 512 512" xml:space="preserve" class=""><g><path d="M46.165 7.062a6.556 6.556 0 0 0-4.458-2.348l-7.013-.672c-6.218-.673-8.668 6.95-8.45 11.409a2.725 2.725 0 0 0 2.895 2.71l3.765-.238a7.797 7.797 0 0 0 5.337-2.648 5.772 5.772 0 0 0-.528-.689 1.018 1.018 0 0 1 1.553-1.317c2.427 2.934 4.883 7.251 3.113 15.038a8.572 8.572 0 0 0-3.879 4.78 17.518 17.518 0 0 1 7.33 5.387 1.027 1.027 0 0 1-1.583 1.309 16.562 16.562 0 0 0-14.715-5.797 28.726 28.726 0 0 0-7.898 1.994 1.038 1.038 0 0 1-.784-1.921 30.446 30.446 0 0 1 6.769-1.904C18.35 24.436 10.032 30.68 9.89 30.811 5.933 37.263 2.873 53.316 13.862 60c-.216-5.728 2.307-10.667 6.972-11.647a1.044 1.044 0 0 1 .449 2.034 6.231 6.231 0 0 0-3.573 2.341c10.51 6.893 26.617 3.038 35.674-1.355a7.396 7.396 0 0 0 4.345-7.033c-.787-22.052-8.348-33.42-11.564-37.278z" fill="#eb6b1a" opacity="1" data-original="#000000"></path></g></svg>