<svg xmlns="http://www.w3.org/2000/svg" version="1.1" xmlns:xlink="http://www.w3.org/1999/xlink" width="512" height="512" x="0" y="0" viewBox="0 0 60 60" style="enable-background:new 0 0 512 512" xml:space="preserve"><g transform="matrix(1.1499999999999992,0,0,1.1499999999999992,-4.499999999999979,-4.500692367553686)"><path d="M32.51 12.57c-.25-.12-.54-.14-.8-.04s-.46.3-.57.55c-.34.84-.55 1.73-.6 2.67-.01.27.09.54.28.74.18.2.45.31.72.31h.01c.27 0 .63.33.75.86.13.53-.07.98-.31 1.1-.25.11-.44.33-.53.59-.08.27-.05.55.08.8.44.79 1.01 1.5 1.7 2.12.21.19.48.28.76.25.27-.02.52-.16.7-.37.16-.21.65-.3 1.14-.06.49.23.72.66.66.93s-.01.55.14.78c.16.23.4.39.67.43.48.08.93.12 1.36.12s.88-.04 1.36-.12c.27-.04.52-.2.67-.43s.2-.51.14-.78.17-.7.66-.93c.49-.24.98-.16 1.15.06.17.21.42.35.69.37.28.03.55-.06.76-.25.69-.62 1.26-1.33 1.7-2.12.14-.25.16-.53.08-.8a.997.997 0 0 0-.53-.59c-.19-.09-.35-.39-.35-.78 0-.1.01-.21.04-.32.12-.53.48-.86.76-.86.27 0 .54-.11.73-.31s.28-.47.27-.74c-.05-.94-.25-1.83-.6-2.67-.11-.25-.31-.45-.57-.55s-.55-.08-.8.04c-.24.12-.71-.01-1.05-.44-.34-.42-.37-.91-.2-1.13.18-.21.25-.49.21-.76a.964.964 0 0 0-.41-.68c-.75-.53-1.57-.93-2.45-1.18-.27-.08-.55-.04-.79.1s-.41.37-.47.64-.46.55-1 .55-.94-.28-1-.55-.23-.5-.47-.64a.97.97 0 0 0-.78-.1c-.89.25-1.71.65-2.46 1.18-.23.16-.38.41-.41.68-.04.27.04.55.21.76.17.22.14.71-.19 1.13-.34.43-.82.56-1.06.44zm6.16.26c1.86 0 3.37 1.52 3.37 3.37 0 1.86-1.51 3.37-3.37 3.37s-3.37-1.51-3.37-3.37c0-1.85 1.51-3.37 3.37-3.37z" fill="#ec6b1a" opacity="1" data-original="#000000"></path><path d="M49.44 15.8h-.65c-.01.78-.3 1.52-.81 2.06-.13.13-.27.25-.42.36.09.15.15.3.21.47.26.88.17 1.71-.23 2.43-.54.97-1.25 1.86-2.1 2.63-.55.49-1.26.77-2 .77-.1 0-.21-.01-.31-.02-.17-.01-.34-.04-.5-.09-.07.17-.16.32-.26.47-.46.71-1.21 1.19-2.05 1.32-.56.09-1.11.14-1.65.14s-1.09-.05-1.69-.15c-.77-.11-1.51-.57-1.98-1.26-.11-.17-.21-.34-.28-.52-.19.05-.38.08-.57.09-.04.01-.15.02-.25.02-.74 0-1.45-.28-2-.78-.85-.76-1.56-1.65-2.11-2.63-.39-.76-.47-1.57-.25-2.34.07-.19.15-.38.24-.55-.16-.11-.31-.25-.44-.4-.5-.52-.78-1.26-.79-2.02H13.44c-2.14 0-3.88 1.74-3.88 3.88v23.33h40.88V16.84l-.01-.01c0-.01.01-.02.01-.02 0-.55-.45-1.01-1-1.01zM33.07 31.64c-.19.2-.45.32-.73.32-.37 0-.85.4-1 1.08-.16.68.1 1.25.43 1.41.25.11.44.33.53.59.09.27.06.55-.08.8a9.06 9.06 0 0 1-1.91 2.38.97.97 0 0 1-.75.25c-.27-.02-.53-.16-.7-.37-.23-.29-.84-.41-1.47-.11s-.91.85-.83 1.21c.06.27.01.56-.14.79s-.4.38-.67.43c-.54.09-1.04.13-1.52.13-.49 0-.99-.04-1.53-.13-.27-.05-.51-.2-.67-.43-.15-.23-.2-.52-.14-.79.09-.36-.2-.91-.83-1.21-.63-.31-1.24-.19-1.47.11-.17.21-.42.35-.7.37a.958.958 0 0 1-.75-.25 9.06 9.06 0 0 1-1.91-2.38c-.14-.25-.16-.53-.08-.8.09-.26.28-.48.53-.59.33-.16.59-.73.43-1.41-.15-.68-.63-1.08-1-1.08a1.007 1.007 0 0 1-1-1.06c.06-1.05.29-2.05.67-2.98.11-.26.31-.46.57-.56.26-.09.55-.08.8.04.33.17.94.01 1.37-.53.44-.55.46-1.17.22-1.46a1.013 1.013 0 0 1 .2-1.45c.84-.59 1.77-1.04 2.76-1.32a.97.97 0 0 1 .78.1c.24.14.41.37.47.64.08.36.58.74 1.28.74.69 0 1.19-.38 1.27-.74.06-.27.23-.5.47-.64.23-.14.52-.18.79-.1.98.28 1.91.73 2.75 1.32a1.013 1.013 0 0 1 .2 1.45c-.23.29-.21.91.22 1.46.44.54 1.04.7 1.37.53.25-.12.54-.13.8-.04.26.1.46.3.57.56.39.93.61 1.94.67 2.98.02.27-.08.55-.27.74z" fill="#ec6b1a" opacity="1" data-original="#000000"></path><path d="M24.23 27.72c-2.04 0-3.7 1.65-3.7 3.69s1.66 3.7 3.7 3.7 3.69-1.66 3.69-3.7c0-2.05-1.65-3.69-3.69-3.69zM54 45.02H6c-.55 0-1 .45-1 1a5.65 5.65 0 0 0 5.65 5.65h38.7A5.65 5.65 0 0 0 55 46.02c0-.55-.45-1-1-1z" fill="#ec6b1a" opacity="1" data-original="#000000"></path></g></svg>