<svg xmlns="http://www.w3.org/2000/svg" version="1.1" xmlns:xlink="http://www.w3.org/1999/xlink" width="512" height="512" x="0" y="0" viewBox="0 0 48 48" style="enable-background:new 0 0 512 512" xml:space="preserve" class=""><g><g fill="#000"><path d="M21 7a3 3 0 1 1 6 0v4a3 3 0 1 1-6 0zM21 37a3 3 0 1 1 6 0v4a3 3 0 1 1-6 0zM44 24a3 3 0 0 0-3-3h-4a3 3 0 1 0 0 6h4a3 3 0 0 0 3-3zM11 21a3 3 0 1 1 0 6H7a3 3 0 1 1 0-6zM38.142 9.858a3 3 0 0 0-4.243 0l-2.828 2.828a3 3 0 1 0 4.243 4.243l2.828-2.828a3 3 0 0 0 0-4.243zM12.686 31.071a3 3 0 1 1 4.243 4.243L14.1 38.142A3 3 0 1 1 9.857 33.9zM38.142 38.142a3 3 0 0 0 0-4.243l-2.828-2.828a3 3 0 0 0-4.243 4.243l2.828 2.828a3 3 0 0 0 4.243 0zM16.929 12.686a3 3 0 1 1-4.243 4.243L9.858 14.1A3 3 0 1 1 14.1 9.857z" fill="#eb6b1a" opacity="1" data-original="#000000" class=""></path></g></g></svg>