<svg xmlns="http://www.w3.org/2000/svg" version="1.1" xmlns:xlink="http://www.w3.org/1999/xlink" width="512" height="512" x="0" y="0" viewBox="0 0 512 512" style="enable-background:new 0 0 512 512" xml:space="preserve" class=""><g><path fill-rule="evenodd" d="M384.013 292.957a132.344 132.344 0 0 1-11.368 27.417l9.621 18.882c3.074 6.034 1.962 13.058-2.827 17.847l-22.336 22.337c-4.789 4.789-11.812 5.901-17.847 2.827l-18.883-9.622a132.416 132.416 0 0 1-27.416 11.369l-6.544 20.141c-2.093 6.441-7.846 10.621-14.618 10.621h-31.589c-6.773 0-12.526-4.179-14.619-10.62l-6.544-20.142a132.398 132.398 0 0 1-27.417-11.368l-18.882 9.621c-6.035 3.075-13.058 1.962-17.847-2.827l-22.337-22.337c-4.789-4.789-5.901-11.812-2.827-17.847l9.622-18.883a132.438 132.438 0 0 1-11.369-27.416l-20.141-6.544c-6.441-2.093-10.621-7.846-10.621-14.619v-31.589c0-6.772 4.18-12.526 10.62-14.619l20.142-6.544a132.42 132.42 0 0 1 11.368-27.417l-9.621-18.882c-3.075-6.035-1.962-13.058 2.827-17.847l22.336-22.337c4.789-4.789 11.813-5.901 17.847-2.827l18.883 9.622a132.416 132.416 0 0 1 27.416-11.369l6.544-20.141c2.093-6.441 7.846-10.621 14.618-10.621h31.589c6.773 0 12.526 4.179 14.618 10.621l6.545 20.144a132.422 132.422 0 0 1 27.414 11.366l18.884-9.622c6.035-3.075 13.058-1.962 17.847 2.827l22.337 22.336c4.789 4.789 5.901 11.812 2.827 17.847l-9.621 18.882a132.42 132.42 0 0 1 11.368 27.417l20.142 6.544c6.441 2.093 10.621 7.846 10.621 14.618v31.589c0 6.773-4.179 12.525-10.621 14.619l-20.142 6.544zM82.356 135.421l20.16 20.16 20.258-85.867-85.866 20.258 20.662 20.662c-70.684 96.235-62.522 232.254 24.509 319.285 78.316 78.316 196.3 92.767 289.268 43.375l-25.765-25.765c-78.297 36.615-174.408 22.602-239.061-42.051-73.498-73.498-81.537-187.64-24.164-270.057zm306.865 306.865 85.867-20.258-20.655-20.655c70.685-96.234 62.516-232.259-24.516-319.291-78.316-78.317-196.301-92.768-289.269-43.376l25.765 25.765c78.297-36.615 174.408-22.602 239.062 42.051 73.498 73.498 81.545 187.645 24.169 270.062l-20.166-20.166-20.258 85.867zM286.87 225.13c-17.049-17.049-44.691-17.049-61.74 0s-17.049 44.691 0 61.74 44.691 17.049 61.74 0 17.049-44.691 0-61.74zm31.909-31.909c-34.672-34.672-90.886-34.672-125.558 0s-34.672 90.886 0 125.558 90.886 34.672 125.558 0 34.672-90.886 0-125.558z" fill="#eb6b1a" opacity="1" data-original="#000000" class=""></path></g></svg>