<svg xmlns="http://www.w3.org/2000/svg" version="1.1" xmlns:xlink="http://www.w3.org/1999/xlink" width="512" height="512" x="0" y="0" viewBox="0 0 512 512" style="enable-background:new 0 0 512 512" xml:space="preserve" class=""><g><path d="M261.159 287.141c18.752.793 29.535 6.92 38.199 11.844C307.547 303.638 313.463 307 327 307s19.453-3.362 27.642-8.015c8.664-4.923 19.447-11.051 38.199-11.844l9.445-.399L342 173.263V110h105a15 15 0 0 0 12-24l-23.25-31L459 24a15 15 0 0 0-12-24H327c-8.284 0-15 6.716-15 15v158.263l-60.286 113.479zM124.469 344.625C130.919 349.066 135.18 352 145 352s14.081-2.934 20.531-7.375c6.187-4.26 13.886-9.561 25.981-11.701l1.873-.331 4.763-8.966-39.959-73.771a14.997 14.997 0 0 0-26.378 0L87.836 331.04l10.651 1.884c12.096 2.14 19.795 7.441 25.982 11.701zM145 382c-19.149 0-29.35-7.023-37.545-12.667-4.944-3.404-8.517-5.864-14.194-6.869l-20.484-3.623L1.811 489.856A15 15 0 0 0 15 512h83.076l71.758-135.073C163.525 379.826 155.649 382 145 382zM510.247 489.963l-92.36-173.854-23.779 1.006c-11.505.486-17.017 3.618-24.645 7.953C360.109 330.384 348.466 337 327 337s-33.108-6.616-42.464-11.932c-7.628-4.335-13.14-7.467-24.645-7.953l-23.779-1.006L132.046 512H497a15 15 0 0 0 13.247-22.037z" fill="#eb6b1a" opacity="1" data-original="#000000"></path></g></svg>