<svg xmlns="http://www.w3.org/2000/svg" version="1.1" xmlns:xlink="http://www.w3.org/1999/xlink" width="512" height="512" x="0" y="0" viewBox="0 0 512 511" style="enable-background:new 0 0 512 512" xml:space="preserve" class=""><g><path d="M13.277 499.3c17.586 17.587 45.996 17.602 63.598 0l91.926-92L182 420.5c5.402 5.996 15.598 6 21 0 6-5.7 6-15.3 0-21l-90-90c-5.7-6-15.3-6-21 0-6 5.7-6 15.3 0 21l13.2 13.2-91.923 92c-17.703 17.398-17.703 46.198 0 63.6zM317 120.5c-42.715 0-84.316 48.516-102.16 74.91 13.992 20.465 55.695 75.09 102.16 75.09 42.715 0 84.316-48.516 102.156-74.914C405.168 175.125 363.465 120.5 317 120.5zm0 120c-24.813 0-45-20.188-45-45s20.188-45 45-45 45 20.188 45 45-20.188 45-45 45zm0 0" fill="#df671b" opacity="1" data-original="#000000" class=""></path><path d="M317 180.5c-8.277 0-15 6.723-15 15s6.723 15 15 15 15-6.723 15-15-6.723-15-15-15zm0 0" fill="#df671b" opacity="1" data-original="#000000" class=""></path><path d="M317 .5c-107.52 0-195 87.48-195 195s87.48 195 195 195 195-87.48 195-195S424.52.5 317 .5zm132.875 202.691C447.504 207.161 390.93 300.5 317 300.5s-130.504-93.34-132.875-97.309a15.006 15.006 0 0 1 0-15.382C186.496 183.839 243.07 90.5 317 90.5s130.504 93.34 132.875 97.309a15.006 15.006 0 0 1 0 15.382zm0 0" fill="#df671b" opacity="1" data-original="#000000" class=""></path></g></svg>