<svg xmlns="http://www.w3.org/2000/svg" version="1.1" xmlns:xlink="http://www.w3.org/1999/xlink" width="512" height="512" x="0" y="0" viewBox="0 0 512 512" style="enable-background:new 0 0 512 512" xml:space="preserve" class=""><g><path d="M490.668 234.668h-22.422C458.22 134.039 377.961 53.781 277.332 43.754V21.332C277.332 9.559 267.797 0 256 0s-21.332 9.559-21.332 21.332v22.422C134.039 53.78 53.781 134.039 43.754 234.668H21.332C9.535 234.668 0 244.223 0 256s9.535 21.332 21.332 21.332h22.422C53.8 377.961 134.039 458.219 234.668 468.246v22.422c0 11.773 9.535 21.332 21.332 21.332s21.332-9.559 21.332-21.332v-22.422c100.629-10.047 180.887-90.285 190.914-190.914h22.422c11.797 0 21.332-9.555 21.332-21.332s-9.535-21.332-21.332-21.332zm-65.473 0h-64.66c-8.515-41.793-41.41-74.688-83.203-83.18V86.805c77.059 9.687 138.176 70.804 147.863 147.863zM234.668 86.805v64.66c-41.793 8.515-74.688 41.41-83.18 83.203H86.805c9.687-77.059 70.804-138.176 147.863-147.863zM86.805 277.332h64.66c8.492 41.793 41.387 74.688 83.18 83.18v64.66c-77.036-9.664-138.153-70.781-147.84-147.84zm190.527 147.863v-64.66c41.793-8.492 74.688-41.387 83.18-83.18h64.66c-9.664 77.036-70.781 138.153-147.84 147.84zm0 0" fill="#eb6b1a" opacity="1" data-original="#000000"></path></g></svg>