<svg xmlns="http://www.w3.org/2000/svg" version="1.1" xmlns:xlink="http://www.w3.org/1999/xlink" width="512" height="512" x="0" y="0" viewBox="0 0 512 512" style="enable-background:new 0 0 512 512" xml:space="preserve" class=""><g><path d="m421 360.993-60.939.002c-15.544 24.203-36.264 44.689-60.619 60.013H421v44.985l91-74.985-91-75zM197.139 420.951C287.732 420.332 361 346.749 361 256.007c0-86.061-65.914-156.656-150-164.244V46.007l-90 75 90 74.985v-43.469c50.75 7.357 90 50.729 90 103.484 0 57.891-47.109 105-105 105H0v60h197.207c-.03-.018-.039-.038-.068-.056z" fill="#eb6b1a" opacity="1" data-original="#000000" class=""></path><path d="M122.749 331.007c-19.532-19.08-31.749-45.608-31.749-75 0-34.863 17.267-65.596 43.504-84.703l-47.137-39.276C52.883 162.27 31 206.538 31 256.007c0 27.105 6.96 52.44 18.541 75z" fill="#eb6b1a" opacity="1" data-original="#000000" class=""></path></g></svg>