<svg xmlns="http://www.w3.org/2000/svg" version="1.1" xmlns:xlink="http://www.w3.org/1999/xlink" width="512" height="512" x="0" y="0" viewBox="0 0 24 24" style="enable-background:new 0 0 512 512" xml:space="preserve" fill-rule="evenodd" class=""><g><path d="m14.618 1.899.952 2.293c.493.226.964.498 1.406.812l2.462-.321a.75.75 0 0 1 .663.25 10.759 10.759 0 0 1 2.069 3.585c.082.237.039.5-.114.699l-1.509 1.971c.051.54.051 1.084 0 1.624l1.509 1.971a.747.747 0 0 1 .114.699 10.759 10.759 0 0 1-2.069 3.585.75.75 0 0 1-.663.25s-2.462-.321-2.461-.322a8.523 8.523 0 0 1-1.407.812l-.952 2.294a.75.75 0 0 1-.548.448 10.76 10.76 0 0 1-4.14 0 .75.75 0 0 1-.548-.448l-.952-2.293a8.659 8.659 0 0 1-1.406-.812l-2.462.321a.75.75 0 0 1-.663-.25 10.759 10.759 0 0 1-2.069-3.585.747.747 0 0 1 .114-.699l1.509-1.971a8.638 8.638 0 0 1 0-1.624L1.944 9.217a.747.747 0 0 1-.114-.699 10.759 10.759 0 0 1 2.069-3.585.75.75 0 0 1 .663-.25s2.462.321 2.461.322a8.523 8.523 0 0 1 1.407-.812l.952-2.294a.75.75 0 0 1 .548-.448 10.76 10.76 0 0 1 4.14 0 .75.75 0 0 1 .548.448zM12 6.25c-3.174 0-5.75 2.576-5.75 5.75s2.576 5.75 5.75 5.75 5.75-2.576 5.75-5.75S15.174 6.25 12 6.25z" fill="#eb6b1a" opacity="1" data-original="#000000" class=""></path><path d="M9.22 12.53a.749.749 0 1 1 1.06-1.06l.97.969 2.47-2.469a.749.749 0 1 1 1.06 1.06l-3 3a.749.749 0 0 1-1.06 0z" fill="#eb6b1a" opacity="1" data-original="#000000" class=""></path></g></svg>