<svg xmlns="http://www.w3.org/2000/svg" version="1.1" xmlns:xlink="http://www.w3.org/1999/xlink" width="512" height="512" x="0" y="0" viewBox="0 0 512 512" style="enable-background:new 0 0 512 512" xml:space="preserve" class=""><g><path d="M288.154 47.931c-6.713-11.614-18.728-18.565-32.155-18.565s-25.441 6.951-32.167 18.578l.012-.012L5.037 426.938c-6.713 11.614-6.713 25.491-.012 37.118 6.713 11.627 18.728 18.578 32.155 18.578h437.64c13.427 0 25.441-6.951 32.155-18.578 6.701-11.627 6.701-25.504 0-37.118zm-32.155 361.692c-14.14 0-25.604-11.464-25.604-25.604s11.464-25.604 25.604-25.604 25.604 11.464 25.604 25.604-11.464 25.604-25.604 25.604zm25.604-123.556c0 14.139-11.464 25.604-25.604 25.604s-25.604-11.464-25.604-25.604V160.611c0-14.14 11.464-25.604 25.604-25.604s25.604 11.464 25.604 25.604z" fill="#eb6b1a" opacity="1" data-original="#000000"></path></g></svg>