<svg xmlns="http://www.w3.org/2000/svg" version="1.1" xmlns:xlink="http://www.w3.org/1999/xlink" width="512" height="512" x="0" y="0" viewBox="0 0 100 100" style="enable-background:new 0 0 512 512" xml:space="preserve" class=""><g><path d="M22.427 88.423H77.55c4.545 0 8.218-3.696 8.218-8.22V42.326c0-4.545-3.696-8.219-8.218-8.219H51.906v-4.713C55.946 28.543 59 24.916 59 20.6c0-4.982-4.041-9.023-9-9.023a9.024 9.024 0 0 0-9.022 9.023c0 4.316 3.053 7.943 7.116 8.793v4.713H22.427c-4.545 0-8.218 3.697-8.218 8.22v37.9c0 4.524 3.673 8.197 8.218 8.197zM63.27 45.746c3.512 0 6.359 2.847 6.359 6.337 0 3.512-2.847 6.336-6.36 6.336a6.334 6.334 0 0 1-6.336-6.336c-.023-3.49 2.824-6.337 6.337-6.337zm-2.41 26.132a1.9 1.9 0 0 1 1.905 1.905 1.9 1.9 0 0 1-1.906 1.906H39.118c-1.056 0-1.906-.85-1.906-1.906s.85-1.905 1.906-1.905zM36.73 45.746a6.334 6.334 0 0 1 6.337 6.337 6.32 6.32 0 0 1-6.337 6.336 6.32 6.32 0 0 1-6.336-6.336c-.023-3.49 2.8-6.337 6.336-6.337zM89.58 44.024v27.48c4.362-.045 7.92-3.65 7.92-8.034V52.06c0-4.385-3.558-7.967-7.92-8.036zM10.398 71.505v-27.48c-4.385.068-7.898 3.65-7.898 8.035v11.387a8.05 8.05 0 0 0 7.898 8.058z" fill="#ec6b1a" opacity="1" data-original="#000000" class=""></path></g></svg>