<svg xmlns="http://www.w3.org/2000/svg" version="1.1" xmlns:xlink="http://www.w3.org/1999/xlink" width="512" height="512" x="0" y="0" viewBox="0 0 682.667 682.667" style="enable-background:new 0 0 512 512" xml:space="preserve" class=""><g><path d="M77.5 506.25V340H18.75C8.395 340 0 348.395 0 358.75v262.5C0 631.605 8.395 640 18.75 640h262.5c10.355 0 18.75-8.395 18.75-18.75V562.5H133.75c-31.016 0-56.25-25.234-56.25-56.25zm0 0" fill="#eb6b1a" opacity="1" data-original="#000000" class=""></path><path d="M621.25 0h-487.5C123.395 0 115 8.395 115 18.75v487.5c0 10.355 8.395 18.75 18.75 18.75h487.5c10.355 0 18.75-8.395 18.75-18.75V18.75C640 8.395 631.605 0 621.25 0zm-74.031 192.227c0 10.351-8.395 18.75-18.75 18.75-10.36 0-18.75-8.399-18.75-18.75v-36.055L352.945 312.945a18.683 18.683 0 0 1-13.257 5.493 18.703 18.703 0 0 1-13.258-5.493c-7.325-7.32-7.325-19.195 0-26.515l157.656-157.657h-37.93c-10.355 0-18.75-8.39-18.75-18.75 0-10.355 8.395-18.75 18.75-18.75h82.313c10.355 0 18.75 8.395 18.75 18.75zm0 0" fill="#eb6b1a" opacity="1" data-original="#000000" class=""></path></g></svg>