<svg xmlns="http://www.w3.org/2000/svg" version="1.1" xmlns:xlink="http://www.w3.org/1999/xlink" width="512" height="512" x="0" y="0" viewBox="0 0 511.291 511.291" style="enable-background:new 0 0 512 512" xml:space="preserve" class=""><g><path d="M367.624 192.645c19.178 0 34.78-15.603 34.78-34.78s-15.603-34.78-34.78-34.78-34.78 15.603-34.78 34.78 15.602 34.78 34.78 34.78z" fill="#ec6b1a" opacity="1" data-original="#000000"></path><path d="M230.142 116.164c-9.584 31.683-7.953 65.416 4.895 96.397 14.702 35.453 42.331 63.06 77.796 77.732 35.464 14.672 74.521 14.656 109.976-.044 13.607-5.643 26.052-13.196 37.06-22.359.765-.643 1.534-1.281 2.286-1.939.096-.083.19-.169.286-.253 29.931-26.345 48.851-64.918 48.851-107.833 0-79.219-64.448-143.667-143.667-143.667-63.67 0-117.785 41.637-136.579 99.109-.292.899-.582 1.8-.856 2.702-.018.052-.032.104-.048.155zm54.919 26.701h19.554a64.388 64.388 0 0 1 7.858-18.937l-13.837-13.837 21.213-21.213 13.837 13.837a64.388 64.388 0 0 1 18.937-7.858V75.302h30v19.554a64.388 64.388 0 0 1 18.937 7.858l13.837-13.837 21.213 21.213-13.837 13.837a64.388 64.388 0 0 1 7.858 18.937h19.554v30h-19.554a64.388 64.388 0 0 1-7.858 18.937l13.837 13.837-21.213 21.213-13.837-13.837a64.388 64.388 0 0 1-18.937 7.858v19.554h-30v-19.554a64.388 64.388 0 0 1-18.937-7.858l-13.837 13.837-21.213-21.213 13.837-13.837a64.388 64.388 0 0 1-7.858-18.937h-19.554zM31.354 393.143h-7.202c-8.424 0-16.098 4.278-20.526 11.444s-4.823 15.942-1.056 23.478l15.567 31.134c11.687 23.374 35.18 37.894 61.312 37.894h307.066c26.133 0 49.626-14.52 61.312-37.893l15.568-31.136c3.768-7.534 3.373-16.311-1.056-23.477s-12.103-11.444-20.526-11.444h-7.202z" fill="#ec6b1a" opacity="1" data-original="#000000"></path><path d="M434.299 317.962c-21.448 8.895-43.991 13.342-66.531 13.342-22.496 0-44.991-4.429-66.404-13.289-42.87-17.736-76.267-51.106-94.039-93.962-12.392-29.882-16.141-61.881-11.269-93.05H31.354v232.141h403.258v-45.316c-.105.043-.208.09-.313.134z" fill="#ec6b1a" opacity="1" data-original="#000000"></path></g></svg>