<svg xmlns="http://www.w3.org/2000/svg" version="1.1" xmlns:xlink="http://www.w3.org/1999/xlink" width="512" height="512" x="0" y="0" viewBox="0 0 32 32" style="enable-background:new 0 0 512 512" xml:space="preserve" fill-rule="evenodd" class=""><g><path d="M10.998 23.998v-.621a1 1 0 0 0-.504-.869l-.004-.002A10.962 10.962 0 0 1 5 12.999C5 6.929 9.926 2 15.997 2S26.997 6.928 26.997 13a10.998 10.998 0 0 1-5.49 9.519.99.99 0 0 0-.497.859v.015a84.01 84.01 0 0 0-.008.606zm.794-9.792 3 3a.997.997 0 0 0 1.47-.062l5.499-6.5a.999.999 0 1 0-1.527-1.29l-4.797 5.67-2.232-2.232a.998.998 0 0 0-1.413 0 .998.998 0 0 0 0 1.414zm9.205 11.792a4 4 0 0 1-4 4h-1.999a4 4 0 0 1-4-4z" fill="#eb6b1a" opacity="1" data-original="#000000" class=""></path></g></svg>