<svg xmlns="http://www.w3.org/2000/svg" version="1.1" xmlns:xlink="http://www.w3.org/1999/xlink" width="512" height="512" x="0" y="0" viewBox="0 0 512 512" style="enable-background:new 0 0 512 512" xml:space="preserve" class=""><g><path d="M396.734 183.609c13.749 24.844 21.591 53.393 21.591 83.741 0 95.674-77.836 173.51-173.51 173.51S71.306 363.024 71.306 267.351c0-95.672 77.835-173.509 173.509-173.509 29.586 0 57.462 7.451 81.861 20.563l35.73-35.73C327.472 56.81 287.045 45.1 244.814 45.1c-59.365 0-115.178 23.118-157.156 65.096s-65.096 97.79-65.096 157.156c0 59.365 23.118 115.178 65.096 157.155 41.979 41.979 97.791 65.097 157.156 65.097s115.178-23.118 157.155-65.097c41.979-41.978 65.097-97.79 65.097-157.155 0-42.951-12.108-84.038-34.699-119.376z" fill="#eb6b1a" opacity="1" data-original="#000000" class=""></path><path d="M261.823 226.279c-15.999-6.556-35.142-3.406-48.118 9.571-17.312 17.312-17.312 45.238 0 62.416 17.305 17.305 45.231 17.305 62.407 0 12.984-12.986 16.127-32.127 9.571-48.118L412.471 123.36l21.115 2.752 55.851-55.858-42.215-5.633-5.641-42.222-55.858 55.986 2.759 21.108zm0 0" fill="#eb6b1a" opacity="1" data-original="#000000" class=""></path><path d="M327.49 252.852a84.096 84.096 0 0 1 1.257 14.499c0 46.281-37.651 83.933-83.933 83.933-46.28 0-83.933-37.651-83.933-83.933 0-46.28 37.652-83.932 83.933-83.932 4.07 0 8.071.297 11.988.859l39.289-39.289c-15.783-6.639-33.108-10.313-51.277-10.313-73.157 0-132.675 59.518-132.675 132.675s59.518 132.676 132.675 132.676S377.49 340.508 377.49 267.351c0-18.951-4.003-36.982-11.193-53.306z" fill="#eb6b1a" opacity="1" data-original="#000000" class=""></path></g></svg>