<svg xmlns="http://www.w3.org/2000/svg" version="1.1" xmlns:xlink="http://www.w3.org/1999/xlink" width="512" height="512" x="0" y="0" viewBox="0 0 500 500" style="enable-background:new 0 0 512 512" xml:space="preserve" class=""><g><path fill-rule="evenodd" d="M250.001 171.932c29.855 0 54.057-24.202 54.057-54.056 0-29.856-24.202-54.057-54.057-54.057-29.854 0-54.056 24.202-54.056 54.057 0 29.854 24.202 54.056 54.056 54.056zm-6.474 225.278v-67.775a.842.842 0 0 0-.431-.747.84.84 0 0 0-.863 0l-62.332 35.987a6.456 6.456 0 0 1-6.542-.04l-62.262-35.947a.843.843 0 0 0-.863 0 .845.845 0 0 0-.432.747v67.775c0 .317.157.589.431.747l66 38.105a.843.843 0 0 0 .863 0l65.999-38.105a.84.84 0 0 0 .432-.747zm-66.431-45.828a.84.84 0 0 1-.863 0l-58.708-33.895c-.274-.159-.431-.43-.431-.747s.157-.589.432-.747l58.708-33.895a.845.845 0 0 1 .863 0l58.708 33.895c.274.159.432.43.432.747s-.157.589-.432.747zm97.029-28.162 48.778 28.162a.84.84 0 0 0 .863 0l58.708-33.895c.274-.158.431-.43.431-.747s-.157-.589-.431-.747l-58.708-33.895a.845.845 0 0 0-.863 0l-58.708 33.895c-.274.159-.431.43-.431.747s.157.589.431.747zm-17.652 57.037v-50.822c0-.317.157-.589.431-.747a.843.843 0 0 1 .863 0l62.332 35.987a6.456 6.456 0 0 0 6.542-.04l62.262-35.947a.845.845 0 0 1 .863 0c.274.158.431.43.431.747v67.775a.842.842 0 0 1-.431.747l-66 38.105a.84.84 0 0 1-.863 0l-65.999-38.105a.842.842 0 0 1-.431-.747zm-6.474-198.947c-59.201 0-107.937 47.066-110.654 105.626a.846.846 0 0 0 .413.777c.277.169.6.173.881.011l35.594-20.55a.845.845 0 0 1 .863 0l72.473 41.842a.845.845 0 0 0 .863 0l72.472-41.842a.845.845 0 0 1 .863 0l35.594 20.55a.844.844 0 0 0 .881-.011.843.843 0 0 0 .413-.777c-2.717-58.56-51.453-105.626-110.656-105.626z" clip-rule="evenodd" fill="#eb6b1a" opacity="1" data-original="#000000" class=""></path></g></svg>