<svg xmlns="http://www.w3.org/2000/svg" version="1.1" xmlns:xlink="http://www.w3.org/1999/xlink" width="512" height="512" x="0" y="0" viewBox="0 0 512 512" style="enable-background:new 0 0 512 512" xml:space="preserve" class=""><g><path fill-rule="evenodd" d="M236.219 172.477v-45.104c-65.209 9.571-115.27 65.74-115.27 133.606 0 32.397 11.412 62.125 30.428 85.395l-50.998 40.691c-27.929-34.429-44.675-78.299-44.675-126.087 0-103.943 79.182-189.37 180.514-199.306V6l98.924 83.239zM272.88 506v-45.439c102.719-8.573 183.416-94.647 183.416-199.581 0-46.632-15.935-89.544-42.66-123.582l-51.008 40.699c17.812 22.879 28.424 51.641 28.424 82.882 0 68.87-51.552 125.696-118.172 134.003v-55.459l-98.925 83.239z" clip-rule="evenodd" fill="#eb6b1a" opacity="1" data-original="#000000"></path></g></svg>