<svg xmlns="http://www.w3.org/2000/svg" version="1.1" xmlns:xlink="http://www.w3.org/1999/xlink" width="512" height="512" x="0" y="0" viewBox="0 0 100 100" style="enable-background:new 0 0 512 512" xml:space="preserve" class=""><g><path fill-rule="evenodd" d="M47.86 28.6A21.47 21.47 0 0 0 50 71.43a21.29 21.29 0 0 0 15.2-6.27A21.54 21.54 0 0 0 71.48 50c0-.64 0-1.38-.85-1.38H65c-.85 0-.85.74-.85 1.38A14.52 14.52 0 0 1 60 60.06a14.16 14.16 0 0 1-20 0A14.52 14.52 0 0 1 35.83 50 14.21 14.21 0 0 1 50 35.82c.64 0 1.38 0 1.38-.85V6.59a1.4 1.4 0 1 0-2.77 0v21.16a.83.83 0 0 1-.74.85zm40.22-4.89L75.74 36a1.29 1.29 0 0 1-1 .42h-8.05a1.71 1.71 0 0 0-1.17.53l-14.68 14.6a1.35 1.35 0 1 1-1.92-1.91L63.5 35.08a1.42 1.42 0 0 0 .5-1.28v-8a1.35 1.35 0 0 1 .43-.95l12.48-12.41a1.38 1.38 0 0 1 2.34 1v7.12a.84.84 0 0 0 .85.85h7a1.36 1.36 0 0 1 1 2.34zm-13 24.87h18.64a1.38 1.38 0 0 1 0 2.76h-7.23a.78.78 0 0 0-.85.85A37.28 37.28 0 0 1 78 72.28a35.7 35.7 0 0 1-19.71 12.65c-.64.11-1.39 0-1.39-.85V73.77a.92.92 0 0 1 .64-.75 25.44 25.44 0 0 0 9.58-6A24.17 24.17 0 0 0 74.25 50c0-.64 0-1.38.85-1.38zM51.37 75v18.6a1.39 1.39 0 0 1-2.77 0v-7a.82.82 0 0 0-.74-.85 35.66 35.66 0 0 1-32.35-27.5c-.21-.64 0-1.27.74-1.27h9.9a.81.81 0 0 1 .85.63 24.25 24.25 0 0 0 23 16.58c.64 0 1.38 0 1.38.85zm-26.5-23.7H6.36a1.38 1.38 0 0 1 0-2.76h7.23a.93.93 0 0 0 1-.75 36 36 0 0 1 26.71-33 .9.9 0 0 1 1.06.85v10.72a.83.83 0 0 1-.53.85 24.62 24.62 0 0 0-8.94 5.64A24.17 24.17 0 0 0 25.72 50c0 .64 0 1.38-.85 1.38zm35.65-2.76h-1.38a.57.57 0 0 0-.53.32l-5.22 5.21c-4.57 4.5-11.39-2.41-6.91-6.87l4.57-4.68a.6.6 0 0 0 .32-.53v-2.55a.91.91 0 0 0-.85-.85 11.43 11.43 0 1 0 11 10.84 1 1 0 0 0-1-.85z" fill="#eb6b1a" opacity="1" data-original="#000000" class=""></path></g></svg>