<svg xmlns="http://www.w3.org/2000/svg" version="1.1" xmlns:xlink="http://www.w3.org/1999/xlink" width="512" height="512" x="0" y="0" viewBox="0 0 64 64" style="enable-background:new 0 0 512 512" xml:space="preserve" class=""><g><path d="M62 23.73v6.54a1 1 0 0 1-.68.95l-4.51 1.5A20.4 20.4 0 0 1 55.05 37l2.13 4.25a1 1 0 0 1-.18 1.12L52.37 47a1 1 0 0 1-1.16.19L47 45.05a20.4 20.4 0 0 1-4.24 1.76l-1.5 4.51a1 1 0 0 1-.95.68h-6.58a1 1 0 0 1-.95-.68l-1.5-4.51a20 20 0 0 1-2.8-1l5.18-5.18A13.64 13.64 0 0 0 37 41a14 14 0 1 0-14-14 13.66 13.66 0 0 0 .41 3.35l-5.18 5.17a20 20 0 0 1-1-2.8l-4.51-1.5a1 1 0 0 1-.68-.95v-6.54a1 1 0 0 1 .68-.95l4.51-1.5A20.18 20.18 0 0 1 19 17l-2.13-4.25a1 1 0 0 1 .13-1.12L21.63 7a1 1 0 0 1 1.16-.19L27 9a20.18 20.18 0 0 1 4.24-1.76l1.5-4.51a1 1 0 0 1 .99-.73h6.54a1 1 0 0 1 .95.68l1.5 4.51A20.18 20.18 0 0 1 47 9l4.2-2.18a1 1 0 0 1 1.16.18L57 11.63a1 1 0 0 1 .19 1.16L55.05 17a20.18 20.18 0 0 1 1.76 4.24l4.51 1.5a1 1 0 0 1 .68.99Zm-27.31 13A9.8 9.8 0 0 0 37 37a10 10 0 0 0 10-10 9.87 9.87 0 0 0-.72-3.73 1 1 0 0 0-1.64-.33l-5 4.95-2.87-.71-.71-2.87 5-4.95a1 1 0 0 0-.33-1.64A9.83 9.83 0 0 0 37 17a10 10 0 0 0-10 10 9.8 9.8 0 0 0 .27 2.31l-13 13A9.8 9.8 0 0 0 12 42 10 10 0 0 0 2 52a9.87 9.87 0 0 0 .72 3.73 1 1 0 0 0 .73.6 1 1 0 0 0 .91-.27l5-5 2.87.71.71 2.87-4.95 5a1 1 0 0 0 .33 1.64A9.87 9.87 0 0 0 12 62a10 10 0 0 0 10-10 9.8 9.8 0 0 0-.27-2.31Z" data-name="16-Gear" fill="#eb6b1a" opacity="1" data-original="#000000"></path></g></svg>