<svg xmlns="http://www.w3.org/2000/svg" version="1.1" xmlns:xlink="http://www.w3.org/1999/xlink" width="512" height="512" x="0" y="0" viewBox="0 0 32 32" style="enable-background:new 0 0 512 512" xml:space="preserve" class=""><g><path d="M20 25.985c-.508.204-1.033.375-1.576.5l-.22 2.866a.703.703 0 0 1-.701.649h-3.007a.702.702 0 0 1-.7-.648l-.22-2.866a10.67 10.67 0 0 1-3.274-1.359L8.117 27a.702.702 0 0 1-.954-.037l-2.126-2.126A.703.703 0 0 1 5 23.883l1.873-2.185a10.72 10.72 0 0 1-1.359-3.274l-2.866-.22A.703.703 0 0 1 2 17.503v-3.007c0-.367.283-.672.648-.7l2.866-.22a10.67 10.67 0 0 1 1.359-3.274L5.001 8.117a.702.702 0 0 1 .036-.953l2.126-2.126a.704.704 0 0 1 .954-.037l2.185 1.873a10.72 10.72 0 0 1 3.274-1.359l.22-2.866A.703.703 0 0 1 14.497 2h3.007c.367 0 .672.283.7.648l.013.167a7.49 7.49 0 0 0-.414 7.462A6 6 0 1 0 16 22a5.968 5.968 0 0 0 4-1.537z" fill="#eb6b1a" opacity="1" data-original="#000000" class=""></path><path d="M27 11.789V27.5a2.5 2.5 0 1 1-5 0V11.789a5.494 5.494 0 0 1-.176-9.696c.077-.042.176.018.176.106V8l2.5 1L27 8V2.199c0-.088.099-.148.176-.105A5.492 5.492 0 0 1 27 11.789z" fill="#eb6b1a" opacity="1" data-original="#000000" class=""></path></g></svg>