<svg xmlns="http://www.w3.org/2000/svg" version="1.1" xmlns:xlink="http://www.w3.org/1999/xlink" width="512" height="512" x="0" y="0" viewBox="0 0 64 64" style="enable-background:new 0 0 512 512" xml:space="preserve" class=""><g><path d="M25.387 36.563c-.68-.67-1.536-1.085-2.233-1.085-.21 0-.499.04-.686.23l-5.373 5.46c-.295.3-.221.846-.176 1.065.128.622.521 1.292 1.078 1.84.68.669 1.536 1.085 2.233 1.085.21 0 .498-.04.686-.23l5.373-5.46c.476-.485.191-1.83-.902-2.905zM21.096 33.12c-.128-.62-.52-1.29-1.077-1.839-.69-.68-1.547-1.095-2.244-1.095-.21 0-.498.04-.685.23l-5.373 5.46c-.295.3-.222.846-.176 1.065.128.622.52 1.292 1.078 1.84.69.68 1.546 1.095 2.243 1.095.21 0 .498-.04.685-.23l5.373-5.46c.295-.3.222-.846.176-1.066zM30.755 41.845c-.68-.669-1.535-1.085-2.232-1.085-.21 0-.499.04-.686.23l-5.373 5.46c-.476.485-.192 1.83.902 2.906.68.669 1.536 1.084 2.233 1.084.21 0 .498-.04.685-.23l5.373-5.46c.476-.484.191-1.83-.902-2.905zM33.89 46.042c-.21 0-.498.04-.685.23l-5.373 5.46c-.295.3-.221.846-.176 1.066.128.62.521 1.29 1.078 1.84.69.679 1.546 1.094 2.244 1.094.209 0 .498-.04.685-.23l5.373-5.46c.476-.484.19-1.83-.902-2.905-.69-.68-1.547-1.095-2.244-1.095zM53.704 13.194a14.05 14.05 0 0 0-10.025-4.156 14.1 14.1 0 0 0-10.036 4.156l-7.372 7.383a.83.83 0 0 0 .082 1.254c1.411 1.07 3.4 1.207 4.99.286l8.668-5.1a1.086 1.086 0 0 1 1.104 1.87l-.782.46.973.974c.01.009.023.011.032.02l11.3 11.3a4.891 4.891 0 0 1 1.07 1.608 14.093 14.093 0 0 0 4.149-10.025 14.09 14.09 0 0 0-4.153-10.03z" fill="#eb6b1a" opacity="1" data-original="#000000" class=""></path><path d="M39.827 21.901c-.01-.009-.023-.011-.032-.02L38.4 20.484l-5.962 3.507c-2.346 1.36-5.3 1.158-7.395-.43a2.998 2.998 0 0 1-.308-4.52l6.11-6.12-.262-.265c-2.83-2.829-6.563-4.39-10.51-4.39-3.756 0-7.266 1.442-9.882 4.058-5.525 5.535-5.375 14.686.336 20.397l.629.63 4.386-4.459c.566-.574 1.338-.879 2.233-.879 1.284 0 2.653.623 3.756 1.708.88.866 1.476 1.913 1.692 2.96.045.218.054.43.064.64 1.245.041 2.557.644 3.623 1.693 1.1 1.083 1.688 2.392 1.747 3.59 1.245.041 2.557.644 3.622 1.692 1.1 1.083 1.687 2.392 1.747 3.59 1.244.041 2.555.645 3.62 1.693.89.874 1.44 1.894 1.66 2.883.378-.134.715-.338.994-.622a2.74 2.74 0 0 0 .011-3.857l-.003-.003-11.305-11.306a1.082 1.082 0 0 1-.318-.767 1.085 1.085 0 0 1 1.853-.77L41.84 42.439l.009.01a2.734 2.734 0 0 0 3.852-.005c.516-.515.8-1.201.8-1.93s-.284-1.414-.8-1.93L34.397 27.283a1.085 1.085 0 1 1 1.536-1.536l11.3 11.3c1.033 1.034 2.835 1.035 3.869 0 .517-.517.801-1.204.801-1.935s-.285-1.418-.801-1.935z" fill="#eb6b1a" opacity="1" data-original="#000000" class=""></path></g></svg>