<svg xmlns="http://www.w3.org/2000/svg" version="1.1" xmlns:xlink="http://www.w3.org/1999/xlink" width="512" height="512" x="0" y="0" viewBox="0 0 192 192" style="enable-background:new 0 0 512 512" xml:space="preserve" class=""><g><g data-name="07-diamond"><path d="M70.893 76h50.214L96 32.063zM135.217 76h55.7a8.134 8.134 0 0 0-.675-1L159.7 36.823zM128.154 72.207l25.063-40.1A7.931 7.931 0 0 0 152 32h-46.822zM69.123 84 96 191.507 122.877 84zM131.123 84l-25.15 100.6 84.134-99.431a8.014 8.014 0 0 0 .821-1.169zM60.877 84H1.072a8.014 8.014 0 0 0 .821 1.167L86.027 184.6zM63.846 72.207 86.822 32H40a7.931 7.931 0 0 0-1.217.1zM56.783 76 32.3 36.823 1.753 75a8.134 8.134 0 0 0-.675 1z" fill="#eb6b1a" opacity="1" data-original="#000000" class=""></path></g></g></svg>