<svg xmlns="http://www.w3.org/2000/svg" version="1.1" xmlns:xlink="http://www.w3.org/1999/xlink" width="512" height="512" x="0" y="0" viewBox="0 0 50 50" style="enable-background:new 0 0 512 512" xml:space="preserve" class=""><g><path d="m10.645 18.414 2.25.362c.02.072.031.154.052.227h5.987c-.02-.052-.052-.114-.072-.166a6.687 6.687 0 0 1 3.478-8.805 6.7 6.7 0 0 1 8.806 3.49 6.628 6.628 0 0 1-.083 5.48h5.987c.02-.072.031-.154.052-.226l2.25-.362a.966.966 0 0 0 .826-.96v-2.55a.977.977 0 0 0-.826-.97l-2.25-.361a12.224 12.224 0 0 0-1.704-4.13l1.332-1.837a.975.975 0 0 0-.103-1.27L34.83 4.542a.987.987 0 0 0-1.27-.104L31.724 5.78a12.281 12.281 0 0 0-4.13-1.713l-.36-2.24a.975.975 0 0 0-.96-.826h-2.54a.978.978 0 0 0-.97.826l-.362 2.24c-1.496.32-2.88.908-4.129 1.713l-1.837-1.342a.987.987 0 0 0-1.27.104L13.37 6.337a.987.987 0 0 0-.103 1.27l1.342 1.837a12.245 12.245 0 0 0-1.714 4.129l-2.25.361a.986.986 0 0 0-.826.97v2.55c0 .475.351.888.826.96zM32.488 27.932l-1.797-3.035V49H43.09a2.07 2.07 0 0 0 2.064-2.065V29.707h-9.558a3.644 3.644 0 0 1-3.107-1.775zM3.902 22.15l-2.533 4.267a1.151 1.151 0 0 0 .99 1.739h21.869c.728 0 1.403-.385 1.775-1.011l3.91-6.59H6.703c-1.15 0-2.215.606-2.801 1.595z" fill="#eb6b1a" opacity="1" data-original="#000000" class=""></path><path d="m48.63 26.417-2.532-4.267a3.257 3.257 0 0 0-2.8-1.595H29.913l3.91 6.59a2.064 2.064 0 0 0 1.776 1.01H47.64c.892 0 1.445-.97.99-1.738zM24.23 29.707H4.843v17.228A2.07 2.07 0 0 0 6.908 49h22.235V24.886l-1.806 3.046a3.63 3.63 0 0 1-3.108 1.775zm-10.967 16.39H8.766a.774.774 0 0 1 0-1.548h4.497a.774.774 0 0 1 0 1.549zm3.987 0h-.89a.774.774 0 0 1 0-1.548h.89a.774.774 0 0 1 0 1.549z" fill="#eb6b1a" opacity="1" data-original="#000000" class=""></path></g></svg>