<svg xmlns="http://www.w3.org/2000/svg" version="1.1" xmlns:xlink="http://www.w3.org/1999/xlink" width="512" height="512" x="0" y="0" viewBox="0 0 24 24" style="enable-background:new 0 0 512 512" xml:space="preserve" class=""><g><path d="M14.75 12A2.75 2.75 0 1 1 12 9.25 2.75 2.75 0 0 1 14.75 12zm6.62.94a10.45 10.45 0 0 1-18.7 0 2.21 2.21 0 0 1 0-1.88 10.45 10.45 0 0 1 18.7 0 2.21 2.21 0 0 1 0 1.88zM16.25 12A4.25 4.25 0 1 0 12 16.25 4.26 4.26 0 0 0 16.25 12z" fill="#eb6b1a" opacity="1" data-original="#000000"></path></g></svg>