<svg xmlns="http://www.w3.org/2000/svg" version="1.1" xmlns:xlink="http://www.w3.org/1999/xlink" width="512" height="512" x="0" y="0" viewBox="0 0 512 512" style="enable-background:new 0 0 512 512" xml:space="preserve" class=""><g><path d="M256 0C148.013 0 60.16 87.854 60.16 195.84S148.014 391.68 256 391.68s195.84-87.854 195.84-195.84S363.987 0 256 0zm91.899 322.328L256 278.839l-91.899 43.489 12.962-100.839-69.758-73.961 99.909-18.833L256 39.493l48.785 89.2 99.91 18.833-69.758 73.962z" fill="#c9624c" opacity="1" data-original="#000000" class=""></path><path d="M285.277 155.544 256 102.014l-29.277 53.53-59.958 11.302 41.864 44.386-7.779 60.516L256 245.649l55.15 26.099-7.779-60.516 41.864-44.386zM119.195 443.452a102.17 102.17 0 0 0 37.469-13.244v-31.435a224.341 224.341 0 0 1-37.469-23.214zM355.336 430.208a102.17 102.17 0 0 0 37.469 13.244v-67.893a224.407 224.407 0 0 1-37.469 23.214zM186.664 410.876V512c22.209-3.206 42.63-13.521 58.624-29.838L256 471.234l10.712 10.928c15.994 16.316 36.415 26.632 58.624 29.838V410.876C303.222 417.98 279.897 421.68 256 421.68s-47.222-3.7-69.336-10.804z" fill="#c9624c" opacity="1" data-original="#000000" class=""></path></g></svg>