<svg xmlns="http://www.w3.org/2000/svg" version="1.1" xmlns:xlink="http://www.w3.org/1999/xlink" width="512" height="512" x="0" y="0" viewBox="0 0 512 512" style="enable-background:new 0 0 512 512" xml:space="preserve" class=""><g><path d="M277.131 280.54h-42.262a5.149 5.149 0 0 0-5.143 5.143v42.452a5.149 5.149 0 0 0 5.143 5.143h42.262a5.149 5.149 0 0 0 5.143-5.143v-42.452a5.149 5.149 0 0 0-5.143-5.143z" fill="#c9624c" opacity="1" data-original="#000000" class=""></path><path d="M433.013 106.981h-87.165V70.508c0-19.059-15.654-34.564-34.896-34.564H201.048c-19.242 0-34.896 15.505-34.896 34.564v36.474H78.987C35.434 106.981 0 142.415 0 185.969v47.341c2.932 14.277 13.24 26.028 27.505 30.593l172.13 42.067v-20.286c0-19.428 15.806-35.234 35.234-35.234h42.262c19.428 0 35.234 15.806 35.234 35.234v20.286l172.13-42.067c14.265-4.565 24.573-16.316 27.505-30.593v-47.341c0-43.554-35.434-78.988-78.987-78.988zm-117.257.001H196.244V70.508c0-2.55 2.065-4.473 4.804-4.473h109.904c2.739 0 4.804 1.923 4.804 4.473v36.474z" fill="#c9624c" opacity="1" data-original="#000000" class=""></path><path d="M492.981 292.778c-.288.089-.578.169-.87.24L311.166 337.24c-4.024 15.028-17.755 26.129-34.035 26.129h-42.262c-16.28 0-30.011-11.101-34.035-26.129L19.889 293.018a16.47 16.47 0 0 1-.87-.24A71.33 71.33 0 0 1 0 283.643v127.893c0 35.576 28.943 64.52 64.52 64.52h382.96c35.576 0 64.52-28.943 64.52-64.52V283.643a71.33 71.33 0 0 1-19.019 9.135z" fill="#c9624c" opacity="1" data-original="#000000" class=""></path></g></svg>